<?xml version="1.0" encoding="UTF-8"?>
<svg width="20px" height="16px" viewBox="0 0 20 16" version="1.1" xmlns="http://www.w3.org/2000/svg" xmlns:xlink="http://www.w3.org/1999/xlink">
    <title>83FFA1EC-F77B-429F-B96F-DD9B8B458A60</title>
    <g id="Symbols" stroke="none" stroke-width="1" fill="none" fill-rule="evenodd">
        <g id="websitefooter" transform="translate(-662.000000, -770.000000)" fill="#0D0B22" fill-rule="nonzero">
            <g id="Group-32" transform="translate(1.000000, 718.000000)">
                <g id="Group-23" transform="translate(661.500000, 52.000000)">
                    <path d="M19,1.89418027 C18.2884915,2.22062731 17.5338589,2.43494214 16.761155,2.53000983 C17.5648119,2.02958609 18.1830095,1.23875581 18.473926,0.295060137 C17.7087881,0.765556682 16.8716575,1.09703911 15.9987113,1.27518223 C15.2619666,0.459874865 14.2316728,-0.00193271549 13.1537902,0 C11.0019777,0 9.25550891,1.80801293 9.25550891,4.03831511 C9.25550891,4.35522502 9.28993403,4.664096 9.35732969,4.95902445 C6.11724701,4.79033241 3.24565858,3.18317334 1.32270042,0.739336934 C0.986934276,1.33509742 0.795414237,2.02958609 0.795414237,2.76992181 C0.795414237,4.17045512 1.48331058,5.40681828 2.52903423,6.13120174 C1.90989857,6.11153799 1.30434286,5.9382942 0.76317099,5.62600488 L0.76317099,5.67750432 C0.76317099,7.63372904 2.10696286,9.26613539 3.88931137,9.63793616 C3.31527985,9.79899641 2.713411,9.82262074 2.12926646,9.70702076 C2.62552154,11.3117933 4.06555829,12.4791974 5.7705715,12.5131117 C4.43671928,13.5945998 2.75619155,14.2414828 0.929478264,14.2414828 C0.61886288,14.2411146 0.308524792,14.2222422 0,14.1849591 C1.7248925,15.3305074 3.77427813,16 5.97542521,16 C13.1453051,16 17.0654052,9.84468753 17.0654052,4.50683433 C17.0654052,4.33223869 17.0654052,4.15764306 17.0532837,3.98430351 C17.8160684,3.41242506 18.4747953,2.70473174 18.9987878,1.89418027 L19,1.89418027 Z" id="Shape"></path>
                </g>
            </g>
        </g>
    </g>
</svg>