<?xml version="1.0" encoding="UTF-8"?>
<svg width="24px" height="24px" viewBox="0 0 24 24" version="1.1" xmlns="http://www.w3.org/2000/svg" xmlns:xlink="http://www.w3.org/1999/xlink">
    <title>81183B17-B367-45C0-9EDA-0F44E8467AE0</title>
    <g id="Symbols" stroke="none" stroke-width="1" fill="none" fill-rule="evenodd">
        <g id="Components-/-desktop-/-header" transform="translate(-1197.000000, -16.000000)" fill="#6F6E7B" fill-rule="nonzero">
            <g id="Group-4" transform="translate(1197.000000, 15.000000)">
                <g id="Icons-/-notifications-thin" transform="translate(0.000000, 1.000000)">
                    <path d="M23.6443624,18.1492537 C23.6443624,18.0298507 23.5249594,17.9104478 23.4055564,17.7910448 C20.8980937,15.5223881 20.3010788,12.6567164 20.0622728,8 C19.8234669,4.17910448 16.7189893,2.26865672 14.5697355,1.79104478 C14.0921236,0.597014925 12.7786907,0.119402985 12.0622728,0 C12.0622728,0 11.9428698,0 11.9428698,0 L11.9428698,0 C11.9428698,0 11.8234669,0 11.8234669,0 C11.107049,0.119402985 9.79361612,0.47761194 9.31600418,1.79104478 C7.16675045,2.3880597 4.06227283,4.17910448 3.82346686,8 C3.58466089,12.6567164 2.98764597,15.5223881 0.480183281,17.7910448 C0.360780296,17.9104478 0.360780296,18.0298507 0.241377311,18.1492537 C0.121974326,18.2686567 -0.23623463,19.1044776 0.241377311,19.9402985 C0.480183281,20.2985075 0.838392236,20.8955224 1.9130191,21.1343284 C2.03242209,21.1343284 2.03242209,21.1343284 2.15182507,21.1343284 L8.83839224,21.1343284 C9.07719821,22.3283582 10.0324221,24 12.1816758,24 C13.9727206,24 14.8085415,22.4477612 15.1667504,21.1343284 L21.8533176,21.1343284 C21.9727206,21.1343284 21.9727206,21.1343284 22.0921236,21.1343284 C23.1667504,20.8955224 23.5249594,20.4179104 23.7637654,19.9402985 C24.1219743,19.1044776 23.7637654,18.2686567 23.6443624,18.1492537 Z M12.1816758,22.8059701 C10.74884,22.8059701 10.2712281,21.8507463 10.0324221,21.1343284 L12.0622728,21.1343284 L13.8533176,21.1343284 C13.6145116,21.8507463 13.1368997,22.8059701 12.1816758,22.8059701 Z M21.8533176,20.0597015 L12.0622728,20.0597015 L11.8234669,20.0597015 L2.03242209,20.0597015 C0.599586266,19.7014925 1.19660119,18.7462687 1.19660119,18.7462687 C4.06227283,16.119403 4.65928776,12.7761194 4.89809373,8.23880597 C5.1368997,3.70149254 10.1518251,2.86567164 10.1518251,2.86567164 C10.2712281,1.43283582 11.9428698,1.31343284 11.9428698,1.31343284 L11.9428698,1.31343284 C11.9428698,1.31343284 13.6145116,1.43283582 13.7339146,2.86567164 C13.7339146,2.86567164 18.74884,3.70149254 18.987646,8.23880597 C19.2264519,12.7761194 19.8234669,16.119403 22.6891385,18.7462687 C22.6891385,18.6268657 23.2861534,19.7014925 21.8533176,20.0597015 Z" id="Shape"></path>
                </g>
            </g>
        </g>
    </g>
</svg>