<?xml version="1.0" encoding="UTF-8"?>
<svg width="24px" height="24px" viewBox="0 0 24 24" version="1.1" xmlns="http://www.w3.org/2000/svg" xmlns:xlink="http://www.w3.org/1999/xlink">
    <title>8D18D5B4-EAD3-4D8F-94E2-42ACA72A0A0F</title>
    <defs>
        <filter id="filter-1">
            <feColorMatrix in="SourceGraphic" type="matrix" values="0 0 0 0 0.749020 0 0 0 0 0.549020 0 0 0 0 0.933333 0 0 0 1.000000 0"></feColorMatrix>
        </filter>
    </defs>
    <g id="Website" stroke="none" stroke-width="1" fill="none" fill-rule="evenodd">
        <g id="Landing" transform="translate(-1041.000000, -7515.000000)">
            <g id="Group-Copy-2" transform="translate(141.000000, 7165.000000)">
                <g id="Group-2-Copy-2" transform="translate(883.000000, 330.000000)">
                    <g id="Icons-/-language" transform="translate(17.000000, 20.000000)" filter="url(#filter-1)">
                        <g id="Group-6" fill="#6F6E7B">
                            <path d="M17.6358815,-5.55111512e-14 C18.6114182,-5.55111512e-14 19.3724327,0.74663311 19.3724327,1.67183497 L19.3724327,1.67183497 L19.372,2.038 L21.1322338,2.03844022 C22.6394375,2.03844022 23.8743683,3.19643362 23.9637772,4.65522378 L23.9689602,4.82483184 L23.9689602,21.2136084 C23.9689602,22.7524156 22.6974069,24 21.1322338,24 L21.1322338,24 L2.83672644,24 C1.27035489,24 6.26165786e-14,22.7524156 6.26165786e-14,21.2136084 L6.26165786e-14,21.2136084 L6.26165786e-14,4.82483184 C6.26165786e-14,3.28722305 1.27035489,2.03844022 2.83672644,2.03844022 L2.83672644,2.03844022 L4.619,2.038 L4.61905832,1.67183497 C4.61905832,0.795327945 5.30099848,0.0790876092 6.17371883,0.006121887 L6.32085449,-5.55111512e-14 C7.29639117,-5.55111512e-14 8.05740566,0.74663311 8.05740566,1.67183497 L8.05740566,1.67183497 L8.057,2.038 L15.934,2.038 L15.9340854,1.67183497 C15.9340854,0.795327945 16.6160255,0.0790876092 17.4887459,0.006121887 Z M19.3724327,3.75473761 C19.3724327,4.67993948 18.6114182,5.42657259 17.6694381,5.42657259 L17.6694381,5.42657259 L17.6358815,5.42657259 C16.6939014,5.42657259 15.9340854,4.67993948 15.9340854,3.75473761 L15.9340854,3.75473761 L15.934,3.152 L8.057,3.152 L8.05740566,3.75473761 C8.05740566,4.63124464 7.37438989,5.34748498 6.50155631,5.4204507 L6.35441104,5.42657259 L6.32085449,5.42657259 C5.37887436,5.42657259 4.61905832,4.67993948 4.61905832,3.75473761 L4.61905832,3.75473761 L4.619,3.152 L2.83672644,3.15299687 C1.94545958,3.15299687 1.21553502,3.82310526 1.14116974,4.68031411 L1.13493027,4.82483184 L1.13493027,21.2136084 C1.13493027,22.1400087 1.89594475,22.8854434 2.83672644,22.8854434 L2.83672644,22.8854434 L21.1322338,22.8854434 C22.0742139,22.8854434 22.8340299,22.1400087 22.8340299,21.2136084 L22.8340299,21.2136084 L22.8340299,4.82483184 C22.8340299,3.89962998 22.0742139,3.15299687 21.1322338,3.15299687 L21.1322338,3.15299687 L19.372,3.152 Z M20.5809477,9.4544365 C20.8973379,9.4544365 21.1478136,9.71090438 21.1478136,10.0129133 L21.1478136,10.0129133 L21.1478136,19.6364508 C21.1478136,19.9372612 20.8973379,20.1937291 20.5809477,20.1937291 L20.5809477,20.1937291 L3.45033182,20.1937291 C3.1327431,20.1937291 2.88226746,19.9372612 2.88226746,19.6364508 L2.88226746,19.6364508 L2.88226746,10.0129133 C2.88226746,9.71090438 3.1327431,9.4544365 3.45033182,9.4544365 L3.45033182,9.4544365 Z M20.0116849,15.3987386 L15.501925,15.3987386 L15.501925,19.0791725 L20.0116849,19.0791725 L20.0116849,15.3987386 Z M8.65279463,15.3987386 L4.13224874,15.3987386 L4.13224874,19.0791725 L8.65279463,19.0791725 L8.65279463,15.3987386 Z M14.3669947,15.3987386 L9.78892334,15.3987386 L9.78892334,19.0791725 L14.3669947,19.0791725 L14.3669947,15.3987386 Z M14.3669947,10.5701916 L9.78892334,10.5701916 L9.78892334,14.284182 L14.3669947,14.284182 L14.3669947,10.5701916 Z M8.65399308,10.5689932 L4.13344719,10.5689932 L4.13344719,14.2829835 L8.65399308,14.2829835 L8.65399308,10.5689932 Z M20.0116849,10.5689932 L15.501925,10.5689932 L15.501925,14.2829835 L20.0116849,14.2829835 L20.0116849,10.5689932 Z M6.35441104,1.11455665 C6.00326577,1.11455665 5.75398858,1.36023849 5.75398858,1.67183497 L5.75398858,1.67183497 L5.753,2.038 L5.75494734,2.03844022 L5.75494734,3.15299687 L5.753,3.152 L5.75398858,3.75473761 C5.75398858,4.03625305 5.95590311,4.26243615 6.22780819,4.30485761 L6.32085449,4.31201594 L6.35441104,4.31201594 C6.67319821,4.31201594 6.92247539,4.06753255 6.92247539,3.75473761 L6.92247539,3.75473761 L6.92247539,1.67183497 C6.92247539,1.36023849 6.67319821,1.11455665 6.35441104,1.11455665 Z M18.2375024,1.67183497 C18.2375024,1.36023849 17.9762408,1.11455665 17.6694381,1.11455665 C17.3182928,1.11455665 17.0678172,1.36023849 17.0678172,1.67183497 L17.0678172,1.67183497 L17.067,2.038 L17.0682966,2.03844022 L17.0682966,3.15299687 L17.067,3.152 L17.0678172,3.75473761 C17.0678172,4.03625305 17.2707024,4.26243615 17.5428017,4.30485761 L17.6358815,4.31201594 L17.6694381,4.31201594 C17.9762408,4.31201594 18.2375024,4.06753255 18.2375024,3.75473761 L18.2375024,3.75473761 Z" id="Combined-Shape"></path>
                        </g>
                    </g>
                </g>
            </g>
        </g>
    </g>
</svg>