<?xml version="1.0" encoding="UTF-8"?>
<svg width="16px" height="16px" viewBox="0 0 16 16" version="1.1" xmlns="http://www.w3.org/2000/svg" xmlns:xlink="http://www.w3.org/1999/xlink">
    <title>C1CFB214-EDE5-45F4-ABFD-851D55CE045D</title>
    <g id="Symbols" stroke="none" stroke-width="1" fill="none" fill-rule="evenodd">
        <g id="Group-6" fill="#6F6E7B">
            <path d="M11.7572544,-3.68594044e-14 C12.4076121,-3.68594044e-14 12.9149551,0.497755407 12.9149551,1.11455665 L12.9149551,1.11455665 L12.914,1.358 L14.0881558,1.35896015 C15.0819165,1.35896015 15.8981294,2.11408204 15.9736105,3.0714946 L15.9793068,3.21655456 L15.9793068,14.1424056 C15.9793068,15.1682771 15.1316046,16 14.0881558,16 L14.0881558,16 L1.89115096,16 C0.84690326,16 4.17443857e-14,15.1682771 4.17443857e-14,14.1424056 L4.17443857e-14,14.1424056 L4.17443857e-14,3.21655456 C4.17443857e-14,2.19148203 0.84690326,1.35896015 1.89115096,1.35896015 L1.89115096,1.35896015 L3.079,1.358 L3.07937221,1.11455665 C3.07937221,0.53887549 3.52062834,0.0668964802 4.09003898,0.00652452851 L4.213903,-3.68594044e-14 C4.86426078,-3.68594044e-14 5.37160377,0.497755407 5.37160377,1.11455665 L5.37160377,1.11455665 L5.371,1.358 L10.622,1.358 L10.6227236,1.11455665 C10.6227236,0.53887549 11.0639797,0.0668964802 11.6333903,0.00652452851 Z M12.9149551,2.50315841 C12.9149551,3.11995965 12.4076121,3.61771506 11.7796254,3.61771506 L11.7796254,3.61771506 L11.7572544,3.61771506 C11.1292676,3.61771506 10.6227236,3.11995965 10.6227236,2.50315841 L10.6227236,2.50315841 L10.622,2.101 L5.371,2.101 L5.37160377,2.50315841 C5.37160377,3.07883957 4.92965166,3.55081858 4.36014822,3.61119053 L4.23627403,3.61771506 L4.213903,3.61771506 C3.58591624,3.61771506 3.07937221,3.11995965 3.07937221,2.50315841 L3.07937221,2.50315841 L3.079,2.101 L1.89115096,2.10199791 C1.30577569,2.10199791 0.824798553,2.53559818 0.763269936,3.0948938 L0.756620177,3.21655456 L0.756620177,14.1424056 C0.756620177,14.7600058 1.26396317,15.2569622 1.89115096,15.2569622 L1.89115096,15.2569622 L14.0881558,15.2569622 C14.7161426,15.2569622 15.2226866,14.7600058 15.2226866,14.1424056 L15.2226866,14.1424056 L15.2226866,3.21655456 C15.2226866,2.59975332 14.7161426,2.10199791 14.0881558,2.10199791 L14.0881558,2.10199791 L12.914,2.101 Z M13.7206318,6.30295767 C13.9315586,6.30295767 14.0985424,6.47393625 14.0985424,6.67527552 L14.0985424,6.67527552 L14.0985424,13.0909672 C14.0985424,13.2915075 13.9315586,13.4624861 13.7206318,13.4624861 L13.7206318,13.4624861 L2.30022121,13.4624861 C2.0884954,13.4624861 1.92151164,13.2915075 1.92151164,13.0909672 L1.92151164,13.0909672 L1.92151164,6.67527552 C1.92151164,6.47393625 2.0884954,6.30295767 2.30022121,6.30295767 L2.30022121,6.30295767 Z M13.3411232,10.2658258 L10.3346167,10.2658258 L10.3346167,12.7194483 L13.3411232,12.7194483 L13.3411232,10.2658258 Z M5.76852975,10.2658258 L2.75483249,10.2658258 L2.75483249,12.7194483 L5.76852975,12.7194483 L5.76852975,10.2658258 Z M9.57799649,10.2658258 L6.5259489,10.2658258 L6.5259489,12.7194483 L9.57799649,12.7194483 L9.57799649,10.2658258 Z M9.57799649,7.0467944 L6.5259489,7.0467944 L6.5259489,9.52278799 L9.57799649,9.52278799 L9.57799649,7.0467944 Z M5.76932872,7.04599544 L2.75563146,7.04599544 L2.75563146,9.52198902 L5.76932872,9.52198902 L5.76932872,7.04599544 Z M13.3411232,7.04599544 L10.3346167,7.04599544 L10.3346167,9.52198902 L13.3411232,9.52198902 L13.3411232,7.04599544 Z M4.23627403,0.743037766 C4.00217718,0.743037766 3.83599239,0.906825661 3.83599239,1.11455665 L3.83599239,1.11455665 L3.835,1.358 L3.83663156,1.35896015 L3.83663156,2.10199791 L3.835,2.101 L3.83599239,2.50315841 C3.83599239,2.68562212 3.96322762,2.83321848 4.13687618,2.86726658 L4.213903,2.87467729 L4.23627403,2.87467729 C4.44879881,2.87467729 4.6149836,2.71168836 4.6149836,2.50315841 L4.6149836,2.50315841 L4.6149836,1.11455665 C4.6149836,0.906825661 4.44879881,0.743037766 4.23627403,0.743037766 Z M11.3785448,2.50315841 C11.3785448,2.71168836 11.5455285,2.87467729 11.7572544,2.87467729 L11.7572544,2.87467729 L11.7796254,2.87467729 C11.9841605,2.87467729 12.158335,2.71168836 12.158335,2.50315841 L12.158335,2.50315841 L12.158335,1.11455665 C12.158335,0.906825661 11.9841605,0.743037766 11.7796254,0.743037766 C11.5455285,0.743037766 11.3785448,0.906825661 11.3785448,1.11455665 L11.3785448,1.11455665 Z" id="Combined-Shape"></path>
        </g>
    </g>
</svg>