<?xml version="1.0" encoding="UTF-8"?>
<svg width="16px" height="16px" viewBox="0 0 16 16" version="1.1" xmlns="http://www.w3.org/2000/svg" xmlns:xlink="http://www.w3.org/1999/xlink">
    <title>40A57236-D7BB-4B64-96D4-A47545D9ABD1</title>
    <g id="Symbols" stroke="none" stroke-width="1" fill="none" fill-rule="evenodd">
        <g id="Icons-/-clock" fill="#6F6E7B">
            <path d="M7.99977143,-3.55271368e-15 C12.4183949,-3.55271368e-15 15.9997714,3.58137652 15.9997714,7.99919028 C15.9997714,12.4178138 12.4183949,15.9991903 7.99977143,15.9991903 C3.58195766,15.9991903 -0.000228571427,12.4178138 -0.000228571427,7.99919028 C-0.000228571427,3.58137652 3.58195766,-3.55271368e-15 7.99977143,-3.55271368e-15 Z M7.99977143,0.809716599 C4.03539896,0.809716599 0.809488028,4.03562753 0.809488028,7.99919028 C0.809488028,11.9643725 4.03539896,15.1894737 7.99977143,15.1894737 C11.9641439,15.1894737 15.1900548,11.9643725 15.1900548,7.99919028 C15.1900548,4.03562753 11.9641439,0.809716599 7.99977143,0.809716599 Z M8.000986,2.08777328 C8.2252775,2.088583 8.40503459,2.26995951 8.40503459,2.49425101 L8.40503459,2.49425101 L8.38803054,7.2788664 C8.64713985,7.41894737 8.8301358,7.6837247 8.8301358,7.99951417 C8.8301358,8.45781377 8.45847588,8.82947368 8.00017629,8.82947368 C7.71515604,8.82947368 7.47547993,8.67724696 7.32568236,8.45862348 L7.32568236,8.45862348 L4.60503459,8.40518219 C4.38155281,8.40032389 4.20422487,8.2157085 4.20827345,7.99222672 C4.21313175,7.76874494 4.39045969,7.58331984 4.62122892,7.59546559 L4.62122892,7.59546559 L7.25523702,7.64728745 C7.32487264,7.49991903 7.4398524,7.38493927 7.57831394,7.30072874 L7.57831394,7.30072874 L7.59531799,2.49101215 C7.59531799,2.26834008 7.77669451,2.08777328 8.00017629,2.08777328 L8.00017629,2.08777328 Z" id="Combined-Shape"></path>
        </g>
    </g>
</svg>