<?xml version="1.0" encoding="UTF-8"?>
<svg width="16px" height="16px" viewBox="0 0 16 16" version="1.1" xmlns="http://www.w3.org/2000/svg" xmlns:xlink="http://www.w3.org/1999/xlink">
    <title>AD72BEE1-B421-40F3-AB5A-F4C57C7DF2DE</title>
    <g id="Symbols" stroke="none" stroke-width="1" fill="none" fill-rule="evenodd">
        <g id="Icons-/-language" fill="#6F6E7B">
            <path d="M15.144,0 C15.6168,0 16,0.3832 16,0.856 L16,0.856 L16,12.4928 C16,12.9656 15.6168,13.3488 15.144,13.3488 L15.144,13.3488 L6.6928,13.3488 L3.44,16 L3.4256,13.3488 L0.8552,13.3488 C0.3832,13.3488 0,12.9656 0,12.4928 L0,12.4928 L0,0.856 C0,0.3832 0.3832,0 0.8552,0 L0.8552,0 Z M15.144,0.8 L0.8552,0.8 C0.8248,0.8 0.8,0.8256 0.8,0.856 L0.8,0.856 L0.8,12.4928 C0.8,12.5232 0.8248,12.5488 0.8552,12.5488 L0.8552,12.5488 L4.2216,12.5488 L4.2256,13.344 L4.2312,14.3232 L6.1872,12.7288 L6.408,12.5488 L15.144,12.5488 C15.1752,12.5488 15.2,12.5232 15.2,12.4928 L15.2,12.4928 L15.2,0.856 C15.2,0.8256 15.1752,0.8 15.144,0.8 L15.144,0.8 Z M10.5836,5.58344 L10.594,6.28024 L12.8844,6.28024 L12.8844,6.97544 L11.8908,6.97544 C11.7404,7.58184 11.4084,8.35784 10.6828,8.98184 C11.0964,9.21784 11.6284,9.39064 12.3356,9.36584 L12.3356,9.36584 L12.3668,10.05944 C12.298,10.06264 12.2292,10.06424 12.162,10.06424 C11.2444,10.06424 10.5588,9.77944 10.0564,9.41944 C9.4516,9.75864 8.6628,10.00184 7.6276,10.05944 L7.6276,10.05944 L7.5884,9.36584 C8.3836,9.32184 8.9964,9.14984 9.4932,8.91304 C9.0508,8.42104 8.8708,7.95384 8.8668,7.94344 L8.8668,7.94344 L9.5196,7.70424 C9.5332,7.73864 9.6972,8.14584 10.098,8.54824 C10.682,8.09784 11.0028,7.52744 11.1668,6.97544 L11.1668,6.97544 L7.6076,6.97544 L7.6076,6.28024 L9.8988,6.28024 L9.8884,5.58344 L10.5836,5.58344 Z M4.87624,3.61816 L6.32824,7.90136 L6.32824,8.46296 L5.63304,8.46296 L5.63304,7.95896 L5.61224,7.89896 L3.48504,7.89896 L3.46344,7.96376 L3.46344,8.46296 L2.76824,8.46296 L2.78664,7.79336 L4.21864,3.61816 L4.87624,3.61816 Z M4.54744,4.80056 L3.72424,7.20376 L5.37384,7.20376 L4.54744,4.80056 Z" id="Combined-Shape"></path>
        </g>
    </g>
</svg>