<?xml version="1.0" encoding="iso-8859-1"?>
<!-- Generator: Adobe Illustrator 19.0.0, SVG Export Plug-In . SVG Version: 6.00 Build 0)  -->
<svg version="1.1" id="Capa_1" xmlns="http://www.w3.org/2000/svg" xmlns:xlink="http://www.w3.org/1999/xlink" x="0px" y="0px"
	 viewBox="0 0 512 512" style="enable-background:new 0 0 512 512;" xml:space="preserve">
<g>
	<g>
		<g>
			<path d="M416,0H96C69.49,0,48,21.49,48,48v416c0,26.51,21.49,48,48,48h320c26.51,0,48-21.49,48-48V48C464,21.49,442.51,0,416,0z
				 M432,464c0,8.837-7.163,16-16,16H96c-8.837,0-16-7.163-16-16V272h352V464z M432,240H80V48c0-8.837,7.163-16,16-16h320
				c8.837,0,16,7.163,16,16V240z"/>
			<rect x="224" y="128" width="64" height="32"/>
			<rect x="224" y="368" width="64" height="32"/>
		</g>
	</g>
</g>
<g>
</g>
<g>
</g>
<g>
</g>
<g>
</g>
<g>
</g>
<g>
</g>
<g>
</g>
<g>
</g>
<g>
</g>
<g>
</g>
<g>
</g>
<g>
</g>
<g>
</g>
<g>
</g>
<g>
</g>
</svg>
