<?xml version="1.0" encoding="UTF-8"?>
<svg width="24px" height="24px" viewBox="0 0 24 24" version="1.1" xmlns="http://www.w3.org/2000/svg" xmlns:xlink="http://www.w3.org/1999/xlink">
    <title>BEE37487-9D12-4EDD-8AD2-2243A2B3B0C9</title>
    <defs>
        <filter id="filter-1">
            <feColorMatrix in="SourceGraphic" type="matrix" values="0 0 0 0 0.901961 0 0 0 0 0.247059 0 0 0 0 0.466667 0 0 0 1.000000 0"></feColorMatrix>
        </filter>
    </defs>
    <g id="Website" stroke="none" stroke-width="1" fill="none" fill-rule="evenodd">
        <g id="Landing" transform="translate(-735.000000, -7513.000000)">
            <g id="Group-Copy-2" transform="translate(141.000000, 7165.000000)">
                <g id="Group-2-Copy-3" transform="translate(576.000000, 330.000000)">
                    <g id="Icons-/-calendar" transform="translate(18.000000, 18.000000)" filter="url(#filter-1)">
                        <g>
                            <path d="M22.716,0 C23.4252,0 24,0.5748 24,1.284 L24,1.284 L24,18.7392 C24,19.4484 23.4252,20.0232 22.716,20.0232 L22.716,20.0232 L10.0392,20.0232 L5.16,24 L5.1384,20.0232 L1.2828,20.0232 C0.5748,20.0232 0,19.4484 0,18.7392 L0,18.7392 L0,1.284 C0,0.5748 0.5748,0 1.2828,0 L1.2828,0 Z M22.716,1.2 L1.2828,1.2 C1.2372,1.2 1.2,1.2384 1.2,1.284 L1.2,1.284 L1.2,18.7392 C1.2,18.7848 1.2372,18.8232 1.2828,18.8232 L1.2828,18.8232 L6.3324,18.8232 L6.3384,20.016 L6.3468,21.4848 L9.2808,19.0932 L9.612,18.8232 L22.716,18.8232 C22.7628,18.8232 22.8,18.7848 22.8,18.7392 L22.8,18.7392 L22.8,1.284 C22.8,1.2384 22.7628,1.2 22.716,1.2 L22.716,1.2 Z M15.8754,8.37516 L15.891,9.42036 L19.3266,9.42036 L19.3266,10.46316 L17.8362,10.46316 C17.6106,11.37276 17.1126,12.53676 16.0242,13.47276 C16.6446,13.82676 17.4426,14.08596 18.5034,14.04876 L18.5034,14.04876 L18.5502,15.08916 C18.447,15.09396 18.3438,15.09636 18.243,15.09636 C16.8666,15.09636 15.8382,14.66916 15.0846,14.12916 C14.1774,14.63796 12.9942,15.00276 11.4414,15.08916 L11.4414,15.08916 L11.3826,14.04876 C12.5754,13.98276 13.4946,13.72476 14.2398,13.36956 C13.5762,12.63156 13.3062,11.93076 13.3002,11.91516 L13.3002,11.91516 L14.2794,11.55636 C14.2998,11.60796 14.5458,12.21876 15.147,12.82236 C16.023,12.14676 16.5042,11.29116 16.7502,10.46316 L16.7502,10.46316 L11.4114,10.46316 L11.4114,9.42036 L14.8482,9.42036 L14.8326,8.37516 L15.8754,8.37516 Z M7.31436,5.42724 L9.49236,11.85204 L9.49236,12.69444 L8.44956,12.69444 L8.44956,11.93844 L8.41836,11.84844 L5.22756,11.84844 L5.19516,11.94564 L5.19516,12.69444 L4.15236,12.69444 L4.17996,11.69004 L6.32796,5.42724 L7.31436,5.42724 Z M6.82116,7.20084 L5.58636,10.80564 L8.06076,10.80564 L6.82116,7.20084 Z" id="Combined-Shape" fill="#6F6E7B"></path>
                        </g>
                    </g>
                </g>
            </g>
        </g>
    </g>
</svg>