<?xml version="1.0" encoding="UTF-8"?>
<svg width="21px" height="15px" viewBox="0 0 21 15" version="1.1" xmlns="http://www.w3.org/2000/svg" xmlns:xlink="http://www.w3.org/1999/xlink">
    <title>706D1E64-8A21-48BA-9B0E-4066C148D464</title>
    <g id="Symbols" stroke="none" stroke-width="1" fill="none" fill-rule="evenodd">
        <g id="Icons-/-menu" fill="#3A3A3A" fill-rule="nonzero">
            <path d="M20.1,6 L0.9,6 C0.072,6 0,6.6705 0,7.5 C0,8.3295 0.072,9 0.9,9 L20.1,9 C20.928,9 21,8.3295 21,7.5 C21,6.6705 20.928,6 20.1,6 L20.1,6 Z M20.1,12 L0.9,12 C0.072,12 0,12.6705 0,13.5 C0,14.3295 0.072,15 0.9,15 L20.1,15 C20.928,15 21,14.3295 21,13.5 C21,12.6705 20.928,12 20.1,12 L20.1,12 Z M0.9,3 L20.1,3 C20.928,3 21,2.3295 21,1.5 C21,0.6705 20.928,0 20.1,0 L0.9,0 C0.072,0 0,0.6705 0,1.5 C0,2.3295 0.072,3 0.9,3 Z" id="Icon-Shape"></path>
        </g>
    </g>
</svg>