<?xml version="1.0" encoding="UTF-8"?>
<svg width="24px" height="24px" viewBox="0 0 24 24" version="1.1" xmlns="http://www.w3.org/2000/svg" xmlns:xlink="http://www.w3.org/1999/xlink">
    <title>54FCD396-7881-4D4C-BBD9-13CFE554CE0C</title>
    <defs>
        <filter id="filter-1">
            <feColorMatrix in="SourceGraphic" type="matrix" values="0 0 0 0 0.121569 0 0 0 0 0.717647 0 0 0 0 1.000000 0 0 0 1.000000 0"></feColorMatrix>
        </filter>
    </defs>
    <g id="Website" stroke="none" stroke-width="1" fill="none" fill-rule="evenodd">
        <g id="Landing" transform="translate(-1041.000000, -7183.000000)">
            <g id="Group-Copy-2" transform="translate(141.000000, 7165.000000)">
                <g id="Group-2-Copy" transform="translate(883.000000, 0.000000)">
                    <g id="Icons-/-calendar-Copy" transform="translate(17.000000, 18.000080)" filter="url(#filter-1)">
                        <g id="Group-3" fill="#6F6E7B">
                            <path d="M6.41064,8.08908 C6.41064,8.08908 5.23584,10.05468 7.06584,11.00028 C7.06584,11.00028 7.50144,13.09188 8.92224,13.79148 L8.92224,16.33908 L2.55984,19.71228 C2.55984,19.71228 0.59424,20.49588 0.03864,22.43868 C-0.17136,23.17428 0.50424,23.87748 1.35624,23.87748 L1.36464,23.87748 L12.00024,23.81628 L22.63464,23.87748 L22.64424,23.87748 C23.49504,23.87748 24.17184,23.17428 23.96184,22.43868 C23.40504,20.49588 21.43944,19.71228 21.43944,19.71228 L15.07824,16.33908 L15.07824,13.79148 C16.49784,13.09188 16.93464,11.00028 16.93464,11.00028 C18.76464,10.05468 17.58984,8.08908 17.58984,8.08908 C19.34664,1.61388 15.38304,1.43868 14.95104,1.43868 C14.92704,1.43868 14.91384,1.43988 14.91384,1.43988 C14.10024,0.30108 12.78744,0.06468 12.17184,0.01908 C12.17184,0.00828 12.05664,-0.00012 11.85864,-0.00012 C10.36344,-0.00012 4.11744,0.44748 6.41064,8.08908 Z M11.88384,1.23588 L12.07944,1.25028 C12.54504,1.28508 13.40304,1.45068 13.90824,2.15868 L14.31624,2.67468 L14.95104,2.67468 C15.03984,2.67468 15.83304,2.69268 16.32384,3.33348 C16.93104,4.12788 16.95744,5.70228 16.39704,7.76508 L16.27224,8.26908 L16.52304,8.71188 C16.63824,8.91708 16.77864,9.33468 16.70544,9.57948 C16.69224,9.62388 16.65264,9.75468 16.36704,9.90348 L15.84504,10.17348 L15.72504,10.74828 C15.65904,11.06628 15.26184,12.32388 14.53344,12.68268 L13.84224,13.02228 L13.84224,13.79148 L13.84224,16.33908 L13.84224,17.08308 L14.49864,17.43108 L20.86104,20.80428 L20.91984,20.83548 L20.98224,20.86068 C20.99544,20.86668 22.28904,21.41268 22.72584,22.62948 C22.70304,22.63668 22.67544,22.64268 22.64184,22.64268 L11.99304,22.58028 L1.35624,22.64268 C1.32384,22.64268 1.29624,22.63668 1.27464,22.62948 C1.70904,21.41868 3.01224,20.86308 3.01824,20.86068 L3.08064,20.83548 L3.13824,20.80428 L9.50064,17.43108 L10.15824,17.08308 L10.15824,16.33908 L10.15824,13.79148 L10.15824,13.02228 L9.46824,12.68268 C8.76264,12.33588 8.35944,11.13588 8.27544,10.74828 L8.15544,10.17348 L7.63344,9.90348 C7.34664,9.75468 7.30824,9.62388 7.29504,9.57948 C7.22304,9.33468 7.36104,8.91708 7.47144,8.72268 L7.74984,8.25468 L7.59384,7.73268 C6.93384,5.53308 6.99984,3.87948 7.78944,2.81748 C8.88264,1.34988 11.18064,1.23588 11.85864,1.23588 L11.88384,1.23588 Z" id="Fill-1"></path>
                        </g>
                    </g>
                </g>
            </g>
        </g>
    </g>
</svg>