<?xml version="1.0" encoding="UTF-8"?>
<svg width="24px" height="20px" viewBox="0 0 24 20" version="1.1" xmlns="http://www.w3.org/2000/svg" xmlns:xlink="http://www.w3.org/1999/xlink">
    <title>8FBACA58-0379-4876-AEB8-44E822DF82C7</title>
    <g id="Desktop" stroke="none" stroke-width="1" fill="none" fill-rule="evenodd">
        <g id="Create-new-service---rich-media" transform="translate(-478.000000, -366.000000)">
            <g id="Group-Copy-3" transform="translate(452.000000, 304.000000)">
                <g id="Group-3" transform="translate(0.000000, 40.000000)">
                    <g id="Icons-/-livevideo-Copy" transform="translate(26.000000, 19.000000)">
                        <path d="M18.44088,22.16604 L5.56008,22.16604 C5.22888,22.16604 4.96128,21.89724 4.96128,21.56724 C4.96128,21.23604 5.22888,20.96724 5.56008,20.96724 L18.44088,20.96724 C18.77208,20.96724 19.04088,21.23604 19.04088,21.56724 C19.04088,21.89724 18.77208,22.16604 18.44088,22.16604" id="Fill-1" fill="#F7480B"></path>
                        <path d="M12.1338,5.91324 C11.487,5.91324 10.9602,6.43884 10.9602,7.08684 C10.9602,7.73124 11.487,8.25564 12.1338,8.25564 C12.7782,8.25564 13.3038,7.73124 13.3038,7.08684 C13.3038,6.43884 12.7782,5.91324 12.1338,5.91324 M12.1338,9.45564 C10.8246,9.45564 9.7602,8.39244 9.7602,7.08684 C9.7602,5.77764 10.8246,4.71324 12.1338,4.71324 C13.4406,4.71324 14.5038,5.77764 14.5038,7.08684 C14.5038,8.39244 13.4406,9.45564 12.1338,9.45564" id="Fill-4" fill="#6F6E7B"></path>
                        <path d="M15.23928,13.20816 C14.96208,13.20816 14.71248,13.01376 14.65368,12.73056 L14.61888,12.58896 C14.32488,11.52336 13.27608,10.78296 12.06648,10.78296 C10.85808,10.78296 9.80928,11.52336 9.51408,12.58296 L9.47928,12.73056 C9.41328,13.05576 9.08688,13.26936 8.77008,13.19496 C8.44608,13.12896 8.23728,12.81096 8.30568,12.48576 C8.32008,12.41016 8.33808,12.33336 8.35968,12.25896 C8.79648,10.68336 10.32048,9.58296 12.06648,9.58296 C13.81488,9.58296 15.33888,10.68456 15.77448,12.26376 C15.79488,12.33336 15.81288,12.40896 15.82728,12.48576 C15.89568,12.81096 15.68688,13.12896 15.36288,13.19496 C15.32088,13.20456 15.28008,13.20816 15.23928,13.20816" id="Fill-6" fill="#6F6E7B"></path>
                        <path d="M21.6096,3 L2.3904,3 C1.0716,3 0,4.0704 0,5.3904 L0,15.9744 C0,17.2944 1.0716,18.3648 2.3904,18.3648 L21.6096,18.3648 C22.9308,18.3648 24,17.2944 24,15.9744 L24,5.3904 C24,4.0704 22.9308,3 21.6096,3 M21.6096,4.2 C22.2672,4.2 22.8,4.7328 22.8,5.3904 L22.8,15.9744 C22.8,16.6308 22.2672,17.1648 21.6096,17.1648 L2.3904,17.1648 C1.7352,17.1648 1.2,16.6308 1.2,15.9744 L1.2,5.3904 C1.2,4.7328 1.7352,4.2 2.3904,4.2 L21.6096,4.2" id="Fill-8" fill="#F7480B"></path>
                        <polygon id="Fill-11" fill="#6F6E7B" points="2.991 16.203 6.5166 16.203 6.5166 14.703 2.991 14.703"></polygon>
                        <polygon id="Fill-13" fill="#6F6E7B" points="7.8666 16.203 11.3922 16.203 11.3922 14.703 7.8666 14.703"></polygon>
                        <polygon id="Fill-14" fill="#6F6E7B" points="12.741 16.203 16.2666 16.203 16.2666 14.703 12.741 14.703"></polygon>
                        <polygon id="Fill-15" fill="#6F6E7B" points="17.6166 16.203 21.1422 16.203 21.1422 14.703 17.6166 14.703"></polygon>
                    </g>
                </g>
            </g>
        </g>
    </g>
</svg>