<?xml version="1.0" encoding="UTF-8"?>
<svg width="50px" height="40px" viewBox="0 0 50 40" version="1.1" xmlns="http://www.w3.org/2000/svg" xmlns:xlink="http://www.w3.org/1999/xlink">
    <title>5716426C-EF31-47F7-B028-715987B86B45</title>
    <g id="Website" stroke="none" stroke-width="1" fill="none" fill-rule="evenodd">
        <g id="Landing" transform="translate(-310.000000, -1183.000000)">
            <g id="Group-16" transform="translate(0.000000, 1008.000000)">
                <g id="Group-30" transform="translate(259.000000, 102.000000)">
                    <g id="Icons-/-language" transform="translate(51.000160, 73.000000)">
                        <path d="M37.8274462,39.3149538 L11.4052923,39.3149538 C10.7259077,39.3149538 10.1769846,38.7635692 10.1769846,38.0866462 C10.1769846,37.4072615 10.7259077,36.8558769 11.4052923,36.8558769 L37.8274462,36.8558769 C38.5068308,36.8558769 39.0582154,37.4072615 39.0582154,38.0866462 C39.0582154,38.7635692 38.5068308,39.3149538 37.8274462,39.3149538" id="Fill-1" fill="#F7480B"></path>
                        <path d="M24.8898462,5.97587692 C23.5630769,5.97587692 22.4824615,7.05403077 22.4824615,8.38326154 C22.4824615,9.70510769 23.5630769,10.7808 24.8898462,10.7808 C26.2116923,10.7808 27.2898462,9.70510769 27.2898462,8.38326154 C27.2898462,7.05403077 26.2116923,5.97587692 24.8898462,5.97587692 M24.8898462,13.2423385 C22.2043077,13.2423385 20.0209231,11.0614154 20.0209231,8.38326154 C20.0209231,5.69772308 22.2043077,3.51433846 24.8898462,3.51433846 C27.5704615,3.51433846 29.7513846,5.69772308 29.7513846,8.38326154 C29.7513846,11.0614154 27.5704615,13.2423385 24.8898462,13.2423385" id="Fill-4" fill="#8E9195"></path>
                        <path d="M31.2600615,20.9398154 C30.6914462,20.9398154 30.1794462,20.5410462 30.0588308,19.9601231 L29.9874462,19.6696615 C29.3843692,17.4838154 27.2329846,15.9650462 24.7517538,15.9650462 C22.2729846,15.9650462 20.1216,17.4838154 19.5160615,19.6573538 L19.4446769,19.9601231 C19.3092923,20.6272 18.6397538,21.0653538 17.9899077,20.9127385 C17.3252923,20.7773538 16.8969846,20.1250462 17.0372923,19.4579692 C17.0668308,19.3028923 17.1037538,19.1453538 17.1480615,18.9927385 C18.0440615,15.7607385 21.1702154,13.5035077 24.7517538,13.5035077 C28.3382154,13.5035077 31.4643692,15.7632 32.3579077,19.0025846 C32.3997538,19.1453538 32.4366769,19.3004308 32.4662154,19.4579692 C32.6065231,20.1250462 32.1782154,20.7773538 31.5136,20.9127385 C31.4274462,20.9324308 31.3437538,20.9398154 31.2600615,20.9398154" id="Fill-6" fill="#8E9195"></path>
                        <path d="M44.3273846,0 L4.90338462,0 C2.19815385,0 0,2.19569231 0,4.90338462 L0,26.6141538 C0,29.3218462 2.19815385,31.5175385 4.90338462,31.5175385 L44.3273846,31.5175385 C47.0375385,31.5175385 49.2307692,29.3218462 49.2307692,26.6141538 L49.2307692,4.90338462 C49.2307692,2.19569231 47.0375385,0 44.3273846,0 M44.3273846,2.46153846 C45.6763077,2.46153846 46.7692308,3.55446154 46.7692308,4.90338462 L46.7692308,26.6141538 C46.7692308,27.9606154 45.6763077,29.056 44.3273846,29.056 L4.90338462,29.056 C3.55938462,29.056 2.46153846,27.9606154 2.46153846,26.6141538 L2.46153846,4.90338462 C2.46153846,3.55446154 3.55938462,2.46153846 4.90338462,2.46153846 L44.3273846,2.46153846" id="Fill-8" fill="#F7480B"></path>
                        <polygon id="Fill-11" fill="#8E9195" points="6.13538462 27.0830769 13.3673846 27.0830769 13.3673846 24.0061538 6.13538462 24.0061538"></polygon>
                        <polygon id="Fill-13" fill="#8E9195" points="16.1366154 27.0830769 23.3686154 27.0830769 23.3686154 24.0061538 16.1366154 24.0061538"></polygon>
                        <polygon id="Fill-14" fill="#8E9195" points="26.1353846 27.0830769 33.3673846 27.0830769 33.3673846 24.0061538 26.1353846 24.0061538"></polygon>
                        <polygon id="Fill-15" fill="#8E9195" points="36.1366154 27.0830769 43.3686154 27.0830769 43.3686154 24.0061538 36.1366154 24.0061538"></polygon>
                    </g>
                </g>
            </g>
        </g>
    </g>
</svg>