<?xml version="1.0" encoding="UTF-8"?>
<svg width="157px" height="22px" viewBox="0 0 157 22" version="1.1" xmlns="http://www.w3.org/2000/svg" xmlns:xlink="http://www.w3.org/1999/xlink">
    <title>371AF6BB-CA52-4345-820A-C10FA4C1594A</title>
    <g id="Symbols" stroke="none" stroke-width="1" fill="none" fill-rule="evenodd">
        <g id="Components-/-desktop-/-header" transform="translate(-120.000000, -16.000000)">
            <g id="Group-2" transform="translate(120.000000, 1.000000)">
                <g id="Group-3-Copy" transform="translate(0.000000, 1.000000)">
                    <g id="Group-5" transform="translate(-0.000000, 14.000000)">
                        <path d="M2.97326554,0 C1.32245367,0.0523208135 1.2470025e-12,1.40905363 1.2470025e-12,3.07249467 L1.2470025e-12,3.07249467 L1.2470025e-12,14.8212236 C1.2470025e-12,16.5189437 1.37477448,17.8937182 3.07249467,17.8937182 L3.07249467,17.8937182 L6.53468919,17.8937182 L6.53468919,21.3216336 C6.53468919,21.7329834 6.87026406,22 7.2184681,22 L7.2184681,22 L7.2184681,22 C7.39527637,22 7.57208463,21.9314417 7.71280958,21.7798918 L7.71280958,21.7798918 L11.2832541,17.8937182 L19.0700344,17.8937182 C20.7659505,17.8937182 22.1425291,16.5189437 22.1425291,14.8212236 L22.1425291,14.8212236 L22.1425291,12.4703953 L27.2663605,15.6854191 C27.7228145,15.9704773 28.3145809,15.6439232 28.3145809,15.1062818 L28.3145809,15.1062818 L28.3145809,2.78743644 C28.3145809,2.24979498 27.7228145,1.92324094 27.2663605,2.20829916 L27.2663605,2.20829916 L22.1425291,5.42151878 L22.1425291,3.07249467 C22.1425291,1.40905363 20.8182713,0.0523208135 19.1674594,0 L19.1674594,0 L2.97326554,0 Z" id="Fill-1" fill="#345DEE"></path>
                        <path d="M50.0645809,19 L55.7052059,3 L52.5177059,3 L48.3614559,15.59375 L48.1973934,15.59375 L44.0333309,3 L40.8536434,3 L46.4864559,19 L50.0645809,19 Z M59.114645,5.296875 C59.5625617,5.296875 59.9466763,5.14713542 60.2669888,4.84765625 C60.5873013,4.54817708 60.7474575,4.1875 60.7474575,3.765625 C60.7474575,3.33854167 60.5873013,2.97526042 60.2669888,2.67578125 C59.9466763,2.37630208 59.5625617,2.2265625 59.114645,2.2265625 C58.6667284,2.2265625 58.2813117,2.37630208 57.958395,2.67578125 C57.6354784,2.97526042 57.47402,3.33854167 57.47402,3.765625 C57.47402,4.1875 57.6341763,4.54817708 57.9544888,4.84765625 C58.2748013,5.14713542 58.66152,5.296875 59.114645,5.296875 Z M60.520895,19 L60.520895,7 L57.69277,7 L57.69277,19 L60.520895,19 Z M67.8771763,19.2109375 C68.5646763,19.2109375 69.1349888,19.0963542 69.5881138,18.8671875 C70.0412388,18.6380208 70.4058221,18.3606771 70.6818638,18.0351562 C70.9579055,17.7096354 71.168843,17.4010417 71.3146763,17.109375 L71.3146763,17.109375 L71.4865513,17.109375 L71.4865513,19 L74.2678013,19 L74.2678013,3 L71.4318638,3 L71.4318638,8.984375 L71.3146763,8.984375 C71.168843,8.69270833 70.9631138,8.38151042 70.6974888,8.05078125 C70.4318638,7.72005208 70.0724888,7.43619792 69.6193638,7.19921875 C69.1662388,6.96223958 68.5881138,6.84375 67.8849888,6.84375 C66.9631138,6.84375 66.1271763,7.07942708 65.3771763,7.55078125 C64.6271763,8.02213542 64.0321242,8.71744792 63.5920201,9.63671875 C63.1519159,10.5559896 62.9318638,11.6822917 62.9318638,13.015625 C62.9318638,14.3333333 63.1480096,15.453125 63.5803013,16.375 C64.012593,17.296875 64.6011346,18 65.3459263,18.484375 C66.090718,18.96875 66.934468,19.2109375 67.8771763,19.2109375 Z M68.6662388,16.890625 C68.0464471,16.890625 67.5243117,16.7226562 67.0998326,16.3867188 C66.6753534,16.0507812 66.3550409,15.5898438 66.1388951,15.0039062 C65.9227492,14.4179688 65.8146763,13.75 65.8146763,13 C65.8146763,12.2552083 65.9214471,11.59375 66.1349888,11.015625 C66.3485305,10.4375 66.6662388,9.984375 67.0881138,9.65625 C67.5099888,9.328125 68.0360305,9.1640625 68.6662388,9.1640625 C69.2756138,9.1640625 69.7899367,9.32291667 70.2092076,9.640625 C70.6284784,9.95833333 70.9461867,10.4036458 71.1623326,10.9765625 C71.3784784,11.5494792 71.4865513,12.2239583 71.4865513,13 C71.4865513,13.7760417 71.3771763,14.4557292 71.1584263,15.0390625 C70.9396763,15.6223958 70.6193638,16.0768229 70.1974888,16.4023438 C69.7756138,16.7278646 69.2651971,16.890625 68.6662388,16.890625 Z M82.6053143,19.234375 C83.5376059,19.234375 84.3657309,19.0924479 85.0896893,18.8085938 C85.8136476,18.5247396 86.4086997,18.1236979 86.8748455,17.6054688 C87.3409914,17.0872396 87.6573976,16.4791667 87.8240643,15.78125 L87.8240643,15.78125 L85.1834393,15.484375 C85.0584393,15.8229167 84.8735434,16.1067708 84.6287518,16.3359375 C84.3839601,16.5651042 84.0948976,16.7382812 83.7615643,16.8554688 C83.4282309,16.9726562 83.0558351,17.03125 82.6443768,17.03125 C82.0297934,17.03125 81.4933351,16.8997396 81.0350018,16.6367188 C80.5766684,16.3736979 80.2198976,15.9934896 79.9646893,15.4960938 C79.7094809,14.9986979 79.5818768,14.4010417 79.5818768,13.703125 L79.5835809,13.774 L87.9412518,13.7734375 L87.9412518,12.90625 C87.9412518,11.8541667 87.7954184,10.9466146 87.5037518,10.1835938 C87.2120851,9.42057292 86.8123455,8.79166667 86.304533,8.296875 C85.7967205,7.80208333 85.2133872,7.43619792 84.554533,7.19921875 C83.8956789,6.96223958 83.1964601,6.84375 82.4568768,6.84375 C81.3110434,6.84375 80.3136476,7.10546875 79.4646893,7.62890625 C78.6157309,8.15234375 77.9555747,8.88151042 77.4842205,9.81640625 C77.0128664,10.7513021 76.7771893,11.8359375 76.7771893,13.0703125 C76.7771893,14.3255208 77.0115643,15.4153646 77.4803143,16.3398438 C77.9490643,17.2643229 78.6196372,17.9778646 79.492033,18.4804688 C80.3644289,18.9830729 81.4021893,19.234375 82.6053143,19.234375 Z M79.5913634,11.8117825 C79.6248455,11.3624841 79.7453812,10.9447545 79.9529705,10.5585938 C80.195158,10.1080729 80.5350018,9.74348958 80.9725018,9.46484375 C81.4100018,9.18619792 81.9178143,9.046875 82.4959393,9.046875 C83.0376059,9.046875 83.5128664,9.16927083 83.9217205,9.4140625 C84.3305747,9.65885417 84.6495851,9.99348958 84.8787518,10.4179688 C85.1079184,10.8424479 85.2251059,11.3255208 85.2303143,11.8671875 L85.2303143,11.8671875 L79.5885809,11.868 L79.5913634,11.8117825 Z M95.564703,19.234375 C96.736578,19.234375 97.752203,18.9765625 98.611578,18.4609375 C99.470953,17.9453125 100.136318,17.2239583 100.607672,16.296875 C101.079026,15.3697917 101.314703,14.2864583 101.314703,13.046875 C101.314703,11.8072917 101.079026,10.7213542 100.607672,9.7890625 C100.136318,8.85677083 99.470953,8.1328125 98.611578,7.6171875 C97.752203,7.1015625 96.736578,6.84375 95.564703,6.84375 C94.392828,6.84375 93.377203,7.1015625 92.517828,7.6171875 C91.658453,8.1328125 90.9930884,8.85677083 90.5217343,9.7890625 C90.0503801,10.7213542 89.814703,11.8072917 89.814703,13.046875 C89.814703,14.2864583 90.0503801,15.3697917 90.5217343,16.296875 C90.9930884,17.2239583 91.658453,17.9453125 92.517828,18.4609375 C93.377203,18.9765625 94.392828,19.234375 95.564703,19.234375 Z M95.580328,16.96875 C94.9292863,16.96875 94.3889218,16.7929688 93.9592343,16.4414062 C93.5295468,16.0898438 93.2092343,15.6171875 92.9982968,15.0234375 C92.7873593,14.4296875 92.6818905,13.7682292 92.6818905,13.0390625 C92.6818905,12.3046875 92.7873593,11.6393229 92.9982968,11.0429688 C93.2092343,10.4466146 93.5295468,9.97135417 93.9592343,9.6171875 C94.3889218,9.26302083 94.9292863,9.0859375 95.580328,9.0859375 C96.2157447,9.0859375 96.7469947,9.26302083 97.174078,9.6171875 C97.6011613,9.97135417 97.9201718,10.4466146 98.1311093,11.0429688 C98.3420468,11.6393229 98.4475155,12.3046875 98.4475155,13.0390625 C98.4475155,13.7682292 98.3420468,14.4296875 98.1311093,15.0234375 C97.9201718,15.6171875 97.6011613,16.0898438 97.174078,16.4414062 C96.7469947,16.7929688 96.2157447,16.96875 95.580328,16.96875 Z M108.931906,19 L112.142843,7.7734375 L112.267843,7.7734375 L115.470968,19 L118.330343,19 L122.845968,3 L119.728781,3 L116.845968,14.765625 L116.705343,14.765625 L113.619406,3 L110.783468,3 L107.705343,14.7578125 L107.556906,14.7578125 L104.674093,3 L101.556906,3 L106.072531,19 L108.931906,19 Z M128.730421,19.234375 C129.902296,19.234375 130.917921,18.9765625 131.777296,18.4609375 C132.636671,17.9453125 133.302036,17.2239583 133.77339,16.296875 C134.244744,15.3697917 134.480421,14.2864583 134.480421,13.046875 C134.480421,11.8072917 134.244744,10.7213542 133.77339,9.7890625 C133.302036,8.85677083 132.636671,8.1328125 131.777296,7.6171875 C130.917921,7.1015625 129.902296,6.84375 128.730421,6.84375 C127.558546,6.84375 126.542921,7.1015625 125.683546,7.6171875 C124.824171,8.1328125 124.158807,8.85677083 123.687452,9.7890625 C123.216098,10.7213542 122.980421,11.8072917 122.980421,13.046875 C122.980421,14.2864583 123.216098,15.3697917 123.687452,16.296875 C124.158807,17.2239583 124.824171,17.9453125 125.683546,18.4609375 C126.542921,18.9765625 127.558546,19.234375 128.730421,19.234375 Z M128.746046,16.96875 C128.095004,16.96875 127.55464,16.7929688 127.124952,16.4414062 C126.695265,16.0898438 126.374952,15.6171875 126.164015,15.0234375 C125.953077,14.4296875 125.847609,13.7682292 125.847609,13.0390625 C125.847609,12.3046875 125.953077,11.6393229 126.164015,11.0429688 C126.374952,10.4466146 126.695265,9.97135417 127.124952,9.6171875 C127.55464,9.26302083 128.095004,9.0859375 128.746046,9.0859375 C129.381463,9.0859375 129.912713,9.26302083 130.339796,9.6171875 C130.766879,9.97135417 131.08589,10.4466146 131.296827,11.0429688 C131.507765,11.6393229 131.613234,12.3046875 131.613234,13.0390625 C131.613234,13.7682292 131.507765,14.4296875 131.296827,15.0234375 C131.08589,15.6171875 130.766879,16.0898438 130.339796,16.4414062 C129.912713,16.7929688 129.381463,16.96875 128.746046,16.96875 Z M139.699186,19 L139.699186,11.9453125 C139.699186,11.4348958 139.816374,10.984375 140.050749,10.59375 C140.285124,10.203125 140.606738,9.89713542 141.015593,9.67578125 C141.424447,9.45442708 141.886686,9.34375 142.402311,9.34375 C142.641895,9.34375 142.890593,9.36067708 143.148405,9.39453125 C143.406218,9.42838542 143.59502,9.46614583 143.714811,9.5078125 L143.714811,9.5078125 L143.714811,6.90625 C143.584603,6.88020833 143.421843,6.86067708 143.22653,6.84765625 C143.031218,6.83463542 142.855436,6.828125 142.699186,6.828125 C142.011686,6.828125 141.401009,7.01692708 140.867155,7.39453125 C140.333301,7.77213542 139.956999,8.30729167 139.738249,9 L139.738249,9 L139.613249,9 L139.613249,7 L136.871061,7 L136.871061,19 L139.699186,19 Z M148.424219,3 L145.596094,3 L145.596094,19 L148.424219,19 L148.423581,14.967 L149.452581,13.864 L153.127344,19 L156.510157,19 L151.584581,12.18 L156.236719,7 L152.932032,7 L148.619532,11.8203125 L148.423581,11.821 L148.424219,3 Z" id="VideoWork" fill="#0D0B22" fill-rule="nonzero"></path>
                    </g>
                </g>
            </g>
        </g>
    </g>
</svg>