<?xml version="1.0" encoding="UTF-8"?>
<svg width="20px" height="20px" viewBox="0 0 20 20" version="1.1" xmlns="http://www.w3.org/2000/svg" xmlns:xlink="http://www.w3.org/1999/xlink">
    <title>5F060DB3-5CA2-40CB-8F00-C3D8812F9CBE</title>
    <g id="Desktop" stroke="none" stroke-width="1" fill="none" fill-rule="evenodd">
        <g id="Seeker---view-profile" transform="translate(-821.000000, -126.000000)">
            <g id="Group-5" transform="translate(426.000000, 74.000000)">
                <g id="Group-4" transform="translate(395.000000, 52.000000)">
                    <circle id="Oval" fill="#4968FF" cx="10" cy="10" r="10"></circle>
                    <path d="M14.4704167,7.18375 C14.7154167,7.42875 14.7154167,7.79625 14.4704167,8.04125 L8.69541667,13.81625 C8.59741667,13.91425 8.49941667,13.97305 8.37005667,13.99265 L8.26666667,14 L8.26666667,14 C8.08291667,14 7.96041667,13.93875 7.83791667,13.81625 L5.18375,11.1620833 C4.93875,10.9170833 4.93875,10.5495833 5.18375,10.3045833 C5.42875,10.0595833 5.79625,10.0595833 6.04125,10.3045833 L8.266,12.529 L13.6129167,7.18375 C13.8579167,6.93875 14.2254167,6.93875 14.4704167,7.18375 Z" id="Combined-Shape" fill="#FFFFFF" fill-rule="nonzero"></path>
                </g>
            </g>
        </g>
    </g>
</svg>