<?xml version="1.0" encoding="UTF-8"?>
<svg width="40px" height="40px" viewBox="0 0 40 40" version="1.1" xmlns="http://www.w3.org/2000/svg" xmlns:xlink="http://www.w3.org/1999/xlink">
    <title>F5D3833C-A653-4E2D-93A7-53594C25997C</title>
    <g id="Website" stroke="none" stroke-width="1" fill="none" fill-rule="evenodd">
        <g id="Landing" transform="translate(-785.000000, -1178.000000)">
            <g id="Group-16" transform="translate(0.000000, 1008.000000)">
                <g id="Group-30-Copy" transform="translate(732.000000, 103.000000)">
                    <g id="Icons-/-language" transform="translate(53.000000, 67.000000)">
                        <path d="M35.91725,0.0005 L4.08125,0.0005 C1.82725,0.0005 -0.00075,1.8245 -0.00075,4.0745 L-0.00075,35.9265 C-0.00075,38.1765 1.82725,40.0005 4.08125,40.0005 L35.91725,40.0005 C38.17325,40.0005 39.99925,38.1765 39.99925,35.9265 L39.99925,4.0745 C39.99925,1.8245 38.17325,0.0005 35.91725,0.0005 M35.91725,2.0865 C37.01725,2.0865 37.90925,2.9765 37.90925,4.0745 L37.90925,35.9265 C37.90925,37.0225 37.01725,37.9145 35.91725,37.9145 L4.08125,37.9145 C2.98325,37.9145 2.08925,37.0225 2.08925,35.9265 L2.08925,4.0745 C2.08925,2.9765 2.98325,2.0865 4.08125,2.0865 L35.91725,2.0865" id="Fill-1" fill="#41BE27"></path>
                        <path d="M5.83325,6.9713 C5.83325,6.3253 6.36125,5.7973 7.00725,5.7973 L17.05925,5.7973 C17.70725,5.7973 18.23525,6.3253 18.23525,6.9713 L18.23525,13.7833 C18.23525,14.4293 17.70725,14.9573 17.05925,14.9573 L11.84725,14.9573 L12.05525,16.6113 L9.93125,14.9573 L7.00725,14.9573 C6.36125,14.9573 5.83325,14.4293 5.83325,13.7833 L5.83325,6.9713 Z M7.00725,16.5273 L9.38925,16.5273 L14.09725,20.1893 L13.63325,16.5273 L17.05925,16.5273 C18.57525,16.5273 19.80725,15.2973 19.80725,13.7833 L19.80725,6.9713 C19.80725,5.4573 18.57525,4.2273 17.05925,4.2273 L7.00725,4.2273 C5.49125,4.2273 4.25925,5.4573 4.25925,6.9713 L4.25925,13.7833 C4.25925,15.2973 5.49125,16.5273 7.00725,16.5273 L7.00725,16.5273 Z" id="Fill-4" fill="#41BE27"></path>
                        <path d="M10.85665,9.0923 L13.00065,10.3743 L10.85665,11.6603 L10.85665,9.0923 Z M10.29265,13.6663 L10.62065,13.6363 L14.58865,11.2523 L14.63465,11.2223 C15.05065,10.9343 15.11665,10.5703 15.11665,10.3783 C15.11665,10.1883 15.05865,9.8223 14.58865,9.4943 L10.79665,7.2243 C10.48065,7.0403 10.08665,7.0443 9.72065,7.2663 C9.44665,7.4603 9.28265,7.7763 9.28265,8.1123 L9.28265,12.6443 C9.28265,12.9783 9.44665,13.2963 9.83465,13.5583 C9.98265,13.6323 10.13865,13.6663 10.29265,13.6663 L10.29265,13.6663 Z" id="Fill-6" fill="#8E9195"></path>
                        <path d="M33.01485,24.6041 L30.12085,24.6041 L28.07485,26.1841 L28.33085,24.6041 L22.96285,24.6041 C22.31285,24.6041 21.78685,24.0781 21.78685,23.4321 L21.78685,23.1361 L24.73885,20.9961 L29.20885,24.2181 L32.50085,21.9881 L34.18885,23.0961 L34.18885,23.4321 C34.18885,24.0781 33.66085,24.6041 33.01485,24.6041 M22.96285,15.4461 L33.01485,15.4461 C33.66085,15.4461 34.18885,15.9741 34.18885,16.6201 L34.18885,21.2181 L32.48485,20.1021 L29.23485,22.3001 L24.73685,19.0581 L21.78685,21.1941 L21.78685,16.6201 C21.78685,15.9741 22.31285,15.4461 22.96285,15.4461 M33.01485,13.8761 L22.96285,13.8761 C21.44685,13.8761 20.21485,15.1061 20.21485,16.6201 L20.21485,23.4321 C20.21485,24.9461 21.44685,26.1761 22.96285,26.1761 L26.47885,26.1761 L25.88085,29.8621 L30.65885,26.1761 L33.01485,26.1761 C34.53085,26.1761 35.76285,24.9461 35.76285,23.4321 L35.76285,16.6201 C35.76285,15.1061 34.53085,13.8761 33.01485,13.8761" id="Fill-8" fill="#41BE27"></path>
                        <path d="M29.22185,17.5591 C29.77185,17.5591 30.21985,18.0051 30.21985,18.5551 C30.21985,19.1031 29.77185,19.5511 29.22185,19.5511 C28.67185,19.5511 28.22385,19.1031 28.22385,18.5551 C28.22385,18.0051 28.67185,17.5591 29.22185,17.5591 M29.22185,21.1211 C30.63785,21.1211 31.79385,19.9691 31.79385,18.5551 C31.79385,17.1391 30.63785,15.9871 29.22185,15.9871 C27.80385,15.9871 26.64985,17.1391 26.64985,18.5551 C26.64985,19.9691 27.80385,21.1211 29.22185,21.1211" id="Fill-10" fill="#8E9195"></path>
                        <path d="M18.68665,32.9303 C18.68665,33.6063 18.13465,34.1583 17.45665,34.1583 L7.11665,34.1583 C6.43665,34.1583 5.88665,33.6063 5.88665,32.9303 L5.88665,29.3423 C5.88665,28.6643 6.43665,28.1143 7.11665,28.1143 L13.04465,28.1143 L15.70065,26.9403 L15.34065,28.1143 L17.45665,28.1143 C18.13465,28.1143 18.68665,28.6643 18.68665,29.3423 L18.68665,32.9303 Z M17.47065,26.5423 L18.24865,23.9943 L12.86665,26.5423 L7.11665,26.5423 C5.56865,26.5423 4.31265,27.7983 4.31265,29.3423 L4.31265,32.9303 C4.31265,34.4743 5.56865,35.7283 7.11665,35.7283 L17.45665,35.7283 C19.00265,35.7283 20.26065,34.4743 20.26065,32.9303 L20.26065,29.3423 C20.26065,27.8023 19.00865,26.5483 17.47065,26.5423 L17.47065,26.5423 Z" id="Fill-12" fill="#41BE27"></path>
                        <polygon id="Fill-14" fill="#8E9195" points="7.27385 33.1181 17.14185 33.1181 17.14185 31.5461 7.27385 31.5461"></polygon>
                        <polygon id="Fill-16" fill="#8E9195" points="14.53385 30.8841 17.14185 30.8841 17.14185 29.3121 14.53385 29.3121"></polygon>
                        <polygon id="Fill-17" fill="#8E9195" points="7.27385 30.8841 13.52385 30.8841 13.52385 29.3121 7.27385 29.3121"></polygon>
                    </g>
                </g>
            </g>
        </g>
    </g>
</svg>