<?xml version="1.0" encoding="UTF-8"?>
<svg width="16px" height="16px" viewBox="0 0 16 16" version="1.1" xmlns="http://www.w3.org/2000/svg" xmlns:xlink="http://www.w3.org/1999/xlink">
    <title>2B02299F-9F5B-45C1-95FB-80F9319AC4CF</title>
    <g id="Symbols" stroke="none" stroke-width="1" fill="none" fill-rule="evenodd">
        <g id="Group">
            <path d="M14.3669,0.0002 L1.6325,0.0002 C0.7309,0.0002 -0.0003,0.7298 -0.0003,1.6298 L-0.0003,14.3706 C-0.0003,15.2706 0.7309,16.0002 1.6325,16.0002 L14.3669,16.0002 C15.2693,16.0002 15.9997,15.2706 15.9997,14.3706 L15.9997,1.6298 C15.9997,0.7298 15.2693,0.0002 14.3669,0.0002 M14.3669,0.8346 C14.8069,0.8346 15.1637,1.1906 15.1637,1.6298 L15.1637,14.3706 C15.1637,14.809 14.8069,15.1658 14.3669,15.1658 L1.6325,15.1658 C1.1933,15.1658 0.8357,14.809 0.8357,14.3706 L0.8357,1.6298 C0.8357,1.1906 1.1933,0.8346 1.6325,0.8346 L14.3669,0.8346" id="Fill-1" fill="#41BE27"></path>
            <path d="M2.3333,2.78852 C2.3333,2.53012 2.5445,2.31892 2.8029,2.31892 L6.8237,2.31892 C7.0829,2.31892 7.2941,2.53012 7.2941,2.78852 L7.2941,5.51332 C7.2941,5.77172 7.0829,5.98292 6.8237,5.98292 L4.7389,5.98292 L4.8221,6.64452 L3.9725,5.98292 L2.8029,5.98292 C2.5445,5.98292 2.3333,5.77172 2.3333,5.51332 L2.3333,2.78852 Z M2.8029,6.61092 L3.7557,6.61092 L5.6389,8.07572 L5.4533,6.61092 L6.8237,6.61092 C7.4301,6.61092 7.9229,6.11892 7.9229,5.51332 L7.9229,2.78852 C7.9229,2.18292 7.4301,1.69092 6.8237,1.69092 L2.8029,1.69092 C2.1965,1.69092 1.7037,2.18292 1.7037,2.78852 L1.7037,5.51332 C1.7037,6.11892 2.1965,6.61092 2.8029,6.61092 L2.8029,6.61092 Z" id="Fill-4" fill="#41BE27"></path>
            <path d="M4.34266,3.63692 L5.20026,4.14972 L4.34266,4.66412 L4.34266,3.63692 Z M4.11706,5.46652 L4.24826,5.45452 L5.83546,4.50092 L5.85386,4.48892 C6.02026,4.37372 6.04666,4.22812 6.04666,4.15132 C6.04666,4.07532 6.02346,3.92892 5.83546,3.79772 L4.31866,2.88972 C4.19226,2.81612 4.03466,2.81772 3.88826,2.90652 C3.77866,2.98412 3.71306,3.11052 3.71306,3.24492 L3.71306,5.05772 C3.71306,5.19132 3.77866,5.31852 3.93386,5.42332 C3.99306,5.45292 4.05546,5.46652 4.11706,5.46652 L4.11706,5.46652 Z" id="Fill-6" fill="#6F6E7B"></path>
            <path d="M13.20594,9.84164 L12.04834,9.84164 L11.22994,10.47364 L11.33234,9.84164 L9.18514,9.84164 C8.92514,9.84164 8.71474,9.63124 8.71474,9.37284 L8.71474,9.25444 L9.89554,8.39844 L11.68354,9.68724 L13.00034,8.79524 L13.67554,9.23844 L13.67554,9.37284 C13.67554,9.63124 13.46434,9.84164 13.20594,9.84164 M9.18514,6.17844 L13.20594,6.17844 C13.46434,6.17844 13.67554,6.38964 13.67554,6.64804 L13.67554,8.48724 L12.99394,8.04084 L11.69394,8.92004 L9.89474,7.62324 L8.71474,8.47764 L8.71474,6.64804 C8.71474,6.38964 8.92514,6.17844 9.18514,6.17844 M13.20594,5.55044 L9.18514,5.55044 C8.57874,5.55044 8.08594,6.04244 8.08594,6.64804 L8.08594,9.37284 C8.08594,9.97844 8.57874,10.47044 9.18514,10.47044 L10.59154,10.47044 L10.35234,11.94484 L12.26354,10.47044 L13.20594,10.47044 C13.81234,10.47044 14.30514,9.97844 14.30514,9.37284 L14.30514,6.64804 C14.30514,6.04244 13.81234,5.55044 13.20594,5.55044" id="Fill-8" fill="#41BE27"></path>
            <path d="M11.68874,7.02364 C11.90874,7.02364 12.08794,7.20204 12.08794,7.42204 C12.08794,7.64124 11.90874,7.82044 11.68874,7.82044 C11.46874,7.82044 11.28954,7.64124 11.28954,7.42204 C11.28954,7.20204 11.46874,7.02364 11.68874,7.02364 M11.68874,8.44844 C12.25514,8.44844 12.71754,7.98764 12.71754,7.42204 C12.71754,6.85564 12.25514,6.39484 11.68874,6.39484 C11.12154,6.39484 10.65994,6.85564 10.65994,7.42204 C10.65994,7.98764 11.12154,8.44844 11.68874,8.44844" id="Fill-10" fill="#6F6E7B"></path>
            <path d="M7.47466,13.17212 C7.47466,13.44252 7.25386,13.66332 6.98266,13.66332 L2.84666,13.66332 C2.57466,13.66332 2.35466,13.44252 2.35466,13.17212 L2.35466,11.73692 C2.35466,11.46572 2.57466,11.24572 2.84666,11.24572 L5.21786,11.24572 L6.28026,10.77612 L6.13626,11.24572 L6.98266,11.24572 C7.25386,11.24572 7.47466,11.46572 7.47466,11.73692 L7.47466,13.17212 Z M6.98826,10.61692 L7.29946,9.59772 L5.14666,10.61692 L2.84666,10.61692 C2.22746,10.61692 1.72506,11.11932 1.72506,11.73692 L1.72506,13.17212 C1.72506,13.78972 2.22746,14.29132 2.84666,14.29132 L6.98266,14.29132 C7.60106,14.29132 8.10426,13.78972 8.10426,13.17212 L8.10426,11.73692 C8.10426,11.12092 7.60346,10.61932 6.98826,10.61692 L6.98826,10.61692 Z" id="Fill-12" fill="#41BE27"></path>
            <polygon id="Fill-14" fill="#6F6E7B" points="2.90954 13.24724 6.85674 13.24724 6.85674 12.61844 2.90954 12.61844"></polygon>
            <polygon id="Fill-16" fill="#6F6E7B" points="5.81354 12.35364 6.85674 12.35364 6.85674 11.72484 5.81354 11.72484"></polygon>
            <polygon id="Fill-17" fill="#6F6E7B" points="2.90954 12.35364 5.40954 12.35364 5.40954 11.72484 2.90954 11.72484"></polygon>
        </g>
    </g>
</svg>