<?xml version="1.0" encoding="UTF-8"?>
<svg width="14px" height="14px" viewBox="0 0 14 14" version="1.1" xmlns="http://www.w3.org/2000/svg" xmlns:xlink="http://www.w3.org/1999/xlink">
    <title>E98D35D8-AEFC-4CD8-B363-E96884F75CD8</title>
    <g id="Desktop" stroke="none" stroke-width="1" fill="none" fill-rule="evenodd">
        <g id="Settings---app" transform="translate(-779.000000, -875.000000)">
            <g id="Group-4" transform="translate(730.000000, 170.000000)">
                <g id="Group-Copy" transform="translate(23.000000, 568.000000)">
                    <g id="CTA" transform="translate(0.000000, 92.000000)">
                        <g id="Group-4" transform="translate(26.000000, 45.000000)">
                            <circle id="Oval" fill="#4968FF" cx="7" cy="7" r="7"></circle>
                            <path d="M11.4704167,4.18375 C11.7154167,4.42875 11.7154167,4.79625 11.4704167,5.04125 L5.69541667,10.81625 C5.59741667,10.91425 5.49941667,10.97305 5.37005667,10.99265 L5.26666667,11 L5.26666667,11 C5.08291667,11 4.96041667,10.93875 4.83791667,10.81625 L2.18375,8.16208333 C1.93875,7.91708333 1.93875,7.54958333 2.18375,7.30458333 C2.42875,7.05958333 2.79625,7.05958333 3.04125,7.30458333 L5.266,9.529 L10.6129167,4.18375 C10.8579167,3.93875 11.2254167,3.93875 11.4704167,4.18375 Z" id="Combined-Shape" fill="#FFFFFF" fill-rule="nonzero"></path>
                        </g>
                    </g>
                </g>
            </g>
        </g>
    </g>
</svg>