<?xml version="1.0" encoding="UTF-8"?>
<svg width="16px" height="16px" viewBox="0 0 16 16" version="1.1" xmlns="http://www.w3.org/2000/svg" xmlns:xlink="http://www.w3.org/1999/xlink">
    <title>A34CBC5D-C8E3-4F3B-A9D0-E8F2CE36EE86</title>
    <g id="Symbols" stroke="none" stroke-width="1" fill="none" fill-rule="evenodd">
        <g id="Group-5" fill="#6F6E7B">
            <path d="M8,0 C12.4168,0 16,3.5912 16,8 C16,12.416 12.4168,16 8,16 C3.592,16 9.05941988e-14,12.416 9.05941988e-14,8 C9.05941988e-14,3.5912 3.592,0 8,0 Z M8,0.8 C4.0304,0.8 0.8,4.0296 0.8,8 C0.8,11.9696 4.0304,15.2 8,15.2 C11.9704,15.2 15.2,11.9696 15.2,8 C15.2,4.0296 11.9704,0.8 8,0.8 Z M8.696,6.60744 L8.696,11.83224 L9.392,11.83224 L9.392,12.52824 L6.6168,12.52824 L6.6168,11.83224 L7.3128,11.83224 L7.3128,7.30424 L6.6168,7.30424 L6.6168,6.60744 L8.696,6.60744 Z M8,3.13624 L8.11510827,3.14232213 C8.64390756,3.19860089 9.0488,3.63858667 9.0488,4.17544 C9.0488,4.75144 8.584,5.22344 8,5.22344 L8,5.22344 L7.88639763,5.2172557 C7.36419556,5.16004444 6.96,4.71304 6.96,4.17544 C6.96,3.60024 7.424,3.13624 8,3.13624 L8,3.13624 Z" id="Combined-Shape"></path>
        </g>
    </g>
</svg>