<?xml version="1.0" encoding="UTF-8"?>
<svg width="20px" height="18px" viewBox="0 0 20 18" version="1.1" xmlns="http://www.w3.org/2000/svg" xmlns:xlink="http://www.w3.org/1999/xlink">
    <title>A3328DC0-E032-488E-936E-550FBD4575CB</title>
    <g id="Symbols" stroke="none" stroke-width="1" fill="none" fill-rule="evenodd">
        <g id="Components-/-desktop-/-sidebar-/-menu-provider" transform="translate(-25.000000, -76.000000)" fill="#6F6E7B" fill-rule="nonzero">
            <g id="Group" transform="translate(23.000000, 26.000000)">
                <g transform="translate(2.000000, 50.000000)" id="Icons-/-dashboard-Copy-2">
                    <path d="M17.4948973,10.0840153 C18.894489,10.0840153 19.9941683,11.0402582 19.9941683,12.2572945 L19.9941683,15.2129541 C20.0941391,16.3430593 18.894489,17.3862333 17.4948973,17.3862333 L13.895947,17.3862333 C12.4963552,17.3862333 11.3966759,16.4299905 11.3966759,15.2129541 L11.3966759,12.2572945 C11.3966759,11.0402582 12.4963552,10.0840153 13.895947,10.0840153 L17.4948973,10.0840153 Z M6.09822133,9.99708415 C7.49781311,9.99708415 8.59749237,10.953327 8.59749237,12.1703633 L8.59749237,15.126023 C8.59749237,16.3430593 7.49781311,17.2993021 6.09822133,17.2993021 L2.49927104,17.2993021 C1.09967926,17.2993021 2.91233704e-12,16.3430593 2.91233704e-12,15.126023 L2.91233704e-12,12.1703633 C2.91233704e-12,10.953327 1.09967926,9.99708415 2.49927104,9.99708415 L6.09822133,9.99708415 Z M17.5948681,10.953327 L13.9959178,10.953327 C13.1961511,10.953327 12.596326,11.5618452 12.596326,12.2572945 L12.596326,15.2129541 C12.596326,15.9084035 13.1961511,16.5169216 13.9959178,16.5169216 L17.5948681,16.5169216 C18.3946348,16.5169216 18.9944599,15.9084035 18.9944599,15.2129541 L18.9944599,12.2572945 C18.9944599,11.5618452 18.3946348,10.953327 17.5948681,10.953327 Z M6.19819217,10.953327 L2.59924188,10.953327 C1.79947515,10.953327 1.1996501,11.5618452 1.1996501,12.2572945 L1.1996501,15.2129541 C1.1996501,15.9084035 1.79947515,16.5169216 2.59924188,16.5169216 L6.19819217,16.5169216 C6.99795891,16.5169216 7.59778396,15.9084035 7.59778396,15.2129541 L7.59778396,12.2572945 C7.59778396,11.5618452 6.99795891,10.953327 6.19819217,10.953327 Z M17.4948973,3.68594044e-14 C18.894489,3.68594044e-14 19.9941683,0.956242832 19.9941683,2.17327916 L19.9941683,5.12893883 C19.9941683,6.34597516 18.894489,7.30221799 17.4948973,7.30221799 L13.895947,7.30221799 C12.4963552,7.30221799 11.3966759,6.34597516 11.3966759,5.12893883 L11.3966759,2.17327916 C11.3966759,0.956242832 12.4963552,3.68594044e-14 13.895947,3.68594044e-14 L17.4948973,3.68594044e-14 Z M6.09822133,3.68594044e-14 C7.49781311,3.68594044e-14 8.59749237,0.956242832 8.59749237,2.17327916 L8.59749237,5.12893883 C8.59749237,6.34597516 7.49781311,7.30221799 6.09822133,7.30221799 L2.49927104,7.30221799 C1.09967926,7.30221799 2.91233704e-12,6.34597516 2.91233704e-12,5.12893883 L2.91233704e-12,2.17327916 C2.91233704e-12,0.956242832 1.09967926,3.68594044e-14 2.49927104,3.68594044e-14 L6.09822133,3.68594044e-14 Z M17.5948681,0.869311665 L13.9959178,0.869311665 C13.1961511,0.869311665 12.596326,1.47782983 12.596326,2.17327916 L12.596326,5.12893883 C12.596326,5.82438816 13.2961219,6.43290632 13.9959178,6.43290632 L17.5948681,6.43290632 C18.3946348,6.43290632 18.9944599,5.82438816 18.9944599,5.12893883 L18.9944599,2.17327916 C18.9944599,1.47782983 18.294664,0.869311665 17.5948681,0.869311665 Z M6.19819217,0.869311665 L2.59924188,0.869311665 C1.79947515,0.869311665 1.1996501,1.47782983 1.1996501,2.17327916 L1.1996501,5.12893883 C1.1996501,5.82438816 1.79947515,6.43290632 2.59924188,6.43290632 L6.19819217,6.43290632 C6.99795891,6.43290632 7.59778396,5.82438816 7.59778396,5.12893883 L7.59778396,2.17327916 C7.59778396,1.47782983 6.99795891,0.869311665 6.19819217,0.869311665 Z" id="Combined-Shape"></path>
                </g>
            </g>
        </g>
    </g>
</svg>