<?xml version="1.0" encoding="utf-8"?>
<!-- Generator: Adobe Illustrator 24.0.1, SVG Export Plug-In . SVG Version: 6.00 Build 0)  -->
<svg version="1.1" id="Layer_1" xmlns="http://www.w3.org/2000/svg" xmlns:xlink="http://www.w3.org/1999/xlink" x="0px" y="0px"
	 viewBox="0 0 20 18" style="enable-background:new 0 0 20 18;" xml:space="preserve">
<style type="text/css">
	.st0{fill:#1FB7FF;}
</style>
<title>A3328DC0-E032-488E-936E-550FBD4575CB</title>
<g id="Symbols">
	<g id="Components-_x2F_-desktop-_x2F_-sidebar-_x2F_-menu-provider" transform="translate(-25.000000, -76.000000)">
		<g id="Group" transform="translate(23.000000, 26.000000)">
			<g id="Icons-_x2F_-dashboard-Copy-2" transform="translate(2.000000, 50.000000)">
				<path id="Combined-Shape" class="st0" d="M17.5,10.1c1.4,0,2.5,1,2.5,2.2v3c0.1,1.1-1.1,2.2-2.5,2.2h-3.6c-1.4,0-2.5-1-2.5-2.2
					v-3c0-1.2,1.1-2.2,2.5-2.2H17.5z M6.1,10c1.4,0,2.5,1,2.5,2.2v3c0,1.2-1.1,2.2-2.5,2.2H2.5c-1.4,0-2.5-1-2.5-2.2v-3
					C0,11,1.1,10,2.5,10H6.1z M17.6,11H14c-0.8,0-1.4,0.6-1.4,1.3v3c0,0.7,0.6,1.3,1.4,1.3h3.6c0.8,0,1.4-0.6,1.4-1.3v-3
					C19,11.6,18.4,11,17.6,11z M6.2,11H2.6c-0.8,0-1.4,0.6-1.4,1.3v3c0,0.7,0.6,1.3,1.4,1.3h3.6c0.8,0,1.4-0.6,1.4-1.3v-3
					C7.6,11.6,7,11,6.2,11z M17.5,0C18.9,0,20,1,20,2.2v3c0,1.2-1.1,2.2-2.5,2.2h-3.6c-1.4,0-2.5-1-2.5-2.2v-3C11.4,1,12.5,0,13.9,0
					H17.5z M6.1,0c1.4,0,2.5,1,2.5,2.2v3c0,1.2-1.1,2.2-2.5,2.2H2.5C1.1,7.3,0,6.3,0,5.1v-3C0,1,1.1,0,2.5,0H6.1z M17.6,0.9H14
					c-0.8,0-1.4,0.6-1.4,1.3v3c0,0.7,0.7,1.3,1.4,1.3h3.6c0.8,0,1.4-0.6,1.4-1.3v-3C19,1.5,18.3,0.9,17.6,0.9z M6.2,0.9H2.6
					c-0.8,0-1.4,0.6-1.4,1.3v3c0,0.7,0.6,1.3,1.4,1.3h3.6c0.8,0,1.4-0.6,1.4-1.3v-3C7.6,1.5,7,0.9,6.2,0.9z"/>
			</g>
		</g>
	</g>
</g>
</svg>
