<?xml version="1.0" encoding="utf-8"?>
<!-- Generator: Adobe Illustrator 24.0.1, SVG Export Plug-In . SVG Version: 6.00 Build 0)  -->
<svg version="1.1" id="Layer_1" xmlns="http://www.w3.org/2000/svg" xmlns:xlink="http://www.w3.org/1999/xlink" x="0px" y="0px"
	 viewBox="0 0 21 21" style="enable-background:new 0 0 21 21;" xml:space="preserve">
<style type="text/css">
	.st0{fill-rule:evenodd;clip-rule:evenodd;fill:#E63F77;}
</style>
<title>F1F27F44-CFD5-46E7-92DA-30F3CC91D599</title>
<g id="Symbols">
	<g id="Components-_x2F_-desktop-_x2F_-sidebar-_x2F_-menu-provider" transform="translate(-23.000000, -26.000000)">
		<g id="Group" transform="translate(23.000000, 26.000000)">
			<g id="Icons-_x2F_-dashboard" transform="translate(0.114286, 0.228571)">
				<g>
					<path id="Fill-1" class="st0" d="M10,0C9.8,0,9.5,0.1,9.4,0.3L0.2,8.9C0.1,9,0,9.2,0,9.3c0,0.3,0.2,0.5,0.5,0.5h2.3v7.8
						c0,1.2,0.9,2.2,2,2.2h1.5c1.1,0,2-1,2-2.2v-3.9c0-1.1,0.8-2,1.8-2s1.8,0.9,1.8,2v3.9c0,1.2,0.9,2.2,2,2.2h1.5c1.1,0,2-1,2-2.2
						V9.8h2.3c0.3,0,0.5-0.2,0.5-0.5c0-0.2-0.1-0.3-0.2-0.4l-9.2-8.6l0,0C10.5,0.1,10.2,0,10,0 M10,1.2l7.9,7.5h-0.7h-1.1v1.1v7.8
						c0,0.6-0.4,1-0.9,1h-1.5c-0.5,0-0.9-0.5-0.9-1v-3.9c0-1.7-1.3-3.1-2.9-3.1S7,12,7,13.7v3.9c0,0.6-0.4,1-0.9,1H4.7
						c-0.5,0-0.9-0.5-0.9-1V9.8V8.7H2.7H2.1L10,1.2"/>
				</g>
			</g>
		</g>
	</g>
</g>
</svg>
