<?xml version="1.0" encoding="UTF-8"?>
<svg width="21px" height="21px" viewBox="0 0 21 21" version="1.1" xmlns="http://www.w3.org/2000/svg" xmlns:xlink="http://www.w3.org/1999/xlink">
    <title>F1F27F44-CFD5-46E7-92DA-30F3CC91D599</title>
    <defs>
        <filter id="filter-1">
            <feColorMatrix in="SourceGraphic" type="matrix" values="0 0 0 0 0.121569 0 0 0 0 0.717647 0 0 0 0 1.000000 0 0 0 1.000000 0"></feColorMatrix>
        </filter>
    </defs>
    <g id="Symbols" stroke="none" stroke-width="1" fill="none" fill-rule="evenodd">
        <g id="Components-/-desktop-/-sidebar-/-menu-provider" transform="translate(-23.000000, -26.000000)">
            <g id="Group" transform="translate(23.000000, 26.000000)">
                <g transform="translate(0.114286, 0.228571)" id="Icons-/-dashboard" filter="url(#filter-1)">
                    <g>
                        <path d="M10.0003,-0.0003 C9.7573,-0.0003 9.5243,0.1047 9.3543,0.2917 L0.1853,8.9437 C0.0683,9.0357 0.0003,9.1837 0.0003,9.3397 C0.0003,9.6107 0.2033,9.8307 0.4543,9.8307 L2.7273,9.8307 L2.7273,17.6527 C2.7273,18.8477 3.6223,19.8147 4.7263,19.8147 L6.1833,19.8147 C7.2863,19.8147 8.1823,18.8477 8.1823,17.6527 L8.1823,13.7637 C8.1823,12.6777 8.9953,11.7967 10.0003,11.7967 C11.0043,11.7967 11.8173,12.6777 11.8173,13.7637 L11.8173,17.6527 C11.8173,18.8477 12.7133,19.8147 13.8163,19.8147 L15.2733,19.8147 C16.3773,19.8147 17.2723,18.8477 17.2723,17.6527 L17.2723,9.8307 L19.5453,9.8307 C19.7963,9.8307 20.0003,9.6107 20.0003,9.3397 C20.0003,9.1837 19.9313,9.0357 19.8153,8.9437 L10.6513,0.2977 L10.6463,0.2917 C10.4763,0.1047 10.2423,-0.0003 10.0003,-0.0003 M9.9993,1.2207 L17.9403,8.7127 L17.2723,8.7127 L16.1543,8.7127 L16.1543,9.8307 L16.1543,17.6527 C16.1543,18.2287 15.7593,18.6967 15.2733,18.6967 L13.8163,18.6967 C13.3313,18.6967 12.9373,18.2287 12.9373,17.6527 L12.9373,13.7637 C12.9373,12.0627 11.6193,10.6787 10.0003,10.6787 C8.3813,10.6787 7.0633,12.0627 7.0633,13.7637 L7.0633,17.6527 C7.0633,18.2287 6.6683,18.6967 6.1833,18.6967 L4.7263,18.6967 C4.2403,18.6967 3.8463,18.2287 3.8463,17.6527 L3.8463,9.8307 L3.8463,8.7127 L2.7273,8.7127 L2.0593,8.7127 L9.9993,1.2207" id="Fill-1" fill="#0D0B22"></path>
                    </g>
                </g>
            </g>
        </g>
    </g>
</svg>