<?xml version="1.0" encoding="utf-8"?>
<!-- Generator: Adobe Illustrator 24.0.1, SVG Export Plug-In . SVG Version: 6.00 Build 0)  -->
<svg version="1.1" id="Layer_1" xmlns="http://www.w3.org/2000/svg" xmlns:xlink="http://www.w3.org/1999/xlink" x="0px" y="0px"
	 viewBox="0 0 20 20" style="enable-background:new 0 0 20 20;" xml:space="preserve">
<style type="text/css">
	.st0{fill:#E63F77;}
</style>
<title>7ABA91E7-F1E7-4BF0-AB39-F88F648A3293</title>
<g id="Symbols">
	<g id="Components-_x2F_-desktop-_x2F_-sidebar-_x2F_-menu-provider" transform="translate(-25.000000, -127.000000)">
		<g id="Group" transform="translate(23.000000, 26.000000)">
			<g id="Icons-_x2F_-dashboard-Copy-3" transform="translate(2.000000, 101.000000)">
				<path id="Combined-Shape" class="st0" d="M11.4,0c1.4,0,2.5,1.1,2.5,2.5v3.1l3.5,0c1.4,0,2.5,1.1,2.5,2.5v11.4
					c0,0.2-0.1,0.3-0.3,0.5l-0.1,0l0,0c-0.2,0-0.4-0.1-0.5-0.3L16.7,16H8.5C7.1,16,6,14.9,6,13.5v-3.1H3.2l-2.3,3.8
					c0,0.1-0.2,0.2-0.4,0.2H0.4l0,0C0.2,14.3,0,14.1,0,13.9V2.5C0,1.1,1.1,0,2.5,0H11.4z M17.5,6.6l-3.6,0v1.3
					c0,1.4-1.1,2.5-2.5,2.5H7.1v3.1c0,0.8,0.7,1.5,1.5,1.5h8.5c0.2,0,0.3,0.1,0.4,0.2l1.5,2.5V8.1C19,7.3,18.3,6.6,17.5,6.6z
					 M11.4,1H2.5C1.7,1,1,1.7,1,2.5v9.6l1.5-2.5c0.1-0.1,0.3-0.2,0.4-0.2H6V8.1c0-1.4,1.1-2.5,2.5-2.5l4.4,0V2.5
					C12.9,1.7,12.2,1,11.4,1z M12.9,6.6l-4.3,0c-0.8,0-1.5,0.7-1.5,1.5v1.3h4.3c0.8,0,1.5-0.7,1.5-1.5V6.6z"/>
			</g>
		</g>
	</g>
</g>
</svg>
