<?xml version="1.0" encoding="UTF-8"?>
<svg width="20px" height="20px" viewBox="0 0 20 20" version="1.1" xmlns="http://www.w3.org/2000/svg" xmlns:xlink="http://www.w3.org/1999/xlink">
    <title>7ABA91E7-F1E7-4BF0-AB39-F88F648A3293</title>
    <g id="Symbols" stroke="none" stroke-width="1" fill="none" fill-rule="evenodd">
        <g id="Components-/-desktop-/-sidebar-/-menu-provider" transform="translate(-25.000000, -127.000000)" fill="#6F6E7B" fill-rule="nonzero">
            <g id="Group" transform="translate(23.000000, 26.000000)">
                <g transform="translate(2.000000, 101.000000)" id="Icons-/-dashboard-Copy-3">
                    <path d="M11.4,7.22977234e-13 C12.8,7.22977234e-13 13.9,1.1 13.9,2.5 L13.9,5.599 L17.4,5.6 C18.8,5.6 19.9,6.7 19.9,8.1 L19.9,19.5 C19.9,19.6714286 19.7530612,19.8428571 19.5851312,19.951312 L19.5,20 L19.5,20 C19.3,20 19.1,19.9 19,19.7 L16.7,16 L8.5,16 C7.1,16 6,14.9 6,13.5 L6,10.4 L3.2,10.4 L0.9,14.2 C0.9,14.3 0.7,14.4 0.5,14.4 L0.4,14.4 L0.4,14.4 C0.2,14.3 -6.90558721e-14,14.1 -6.90558721e-14,13.9 L-6.90558721e-14,2.5 C-6.90558721e-14,1.1 1.1,7.22977234e-13 2.5,7.22977234e-13 L11.4,7.22977234e-13 Z M17.5,6.6 L13.9,6.599 L13.9,7.9 C13.9,9.3 12.8,10.4 11.4,10.4 L7.1,10.4 L7.1,13.5 C7.1,14.3 7.8,15 8.6,15 L17.1,15 C17.3,15 17.4,15.1 17.5,15.2 L19,17.7 L19,8.1 C19,7.3 18.3,6.6 17.5,6.6 Z M11.4,1 L2.5,1 C1.7,1 1,1.7 1,2.5 L1,12.1 L2.5,9.6 C2.6,9.5 2.8,9.4 2.9,9.4 L6,9.4 L6,8.1 C6,6.7 7.1,5.6 8.5,5.6 L12.9,5.599 L12.9,2.5 C12.9,1.7 12.2,1 11.4,1 Z M12.9,6.599 L8.6,6.6 C7.8,6.6 7.1,7.3 7.1,8.1 L7.1,9.4 L11.4,9.4 C12.2,9.4 12.9,8.7 12.9,7.9 L12.9,6.599 Z" id="Combined-Shape"></path>
                </g>
            </g>
        </g>
    </g>
</svg>