<?xml version="1.0" encoding="UTF-8"?>
<svg width="20px" height="20px" viewBox="0 0 20 20" version="1.1" xmlns="http://www.w3.org/2000/svg" xmlns:xlink="http://www.w3.org/1999/xlink">
    <title>DF6D8E17-6C68-431B-8FF7-D73360759A7C</title>
    <g id="Symbols" stroke="none" stroke-width="1" fill="none" fill-rule="evenodd">
        <g id="Components-/-desktop-/-sidebar-/-menu-provider" transform="translate(-25.000000, -226.000000)" fill="#6F6E7B">
            <g id="Group" transform="translate(23.000000, 26.000000)">
                <g transform="translate(2.000000, 200.000000)" id="Icons-/-dashboard-Copy-5">
                    <path d="M14.3814454,0 C15.1099775,0 15.6688513,0.678632555 15.6888111,1.64668194 L15.6888111,1.64668194 L15.7187508,4.04185566 L15.718,4.042 L17.9642261,4.04215506 C19.0121146,4.04215506 19.8781382,4.86054732 19.9547026,5.88973759 L19.9602042,6.03813316 L19.9602042,18.0040219 C19.9602042,19.1107918 19.0620141,20 17.9642261,20 L17.9642261,20 L2.03632087,20 C0.938532912,20 0.0403427655,19.1107918 0.0403427655,18.0040219 L0.0403427655,18.0040219 L0.04,7.864 L0.000423203464,5.29932187 C-0.0184860628,4.25931222 0.598553152,3.2730447 1.39331852,3.00239601 L1.52734645,2.96402748 L14.1020085,0.0299396716 C14.2018074,0.00997989052 14.2916264,0 14.3814454,0 Z M17.9642261,5.04014411 L2.03632087,5.04014411 C1.48742689,5.04014411 1.03833182,5.48923918 1.03833182,6.03813316 L1.03833182,6.03813316 L1.03833182,18.0040219 C1.03833182,18.5529159 1.48742689,19.0020109 2.03632087,19.0020109 L2.03632087,19.0020109 L17.9642261,19.0020109 C18.5131201,19.0020109 18.9622152,18.5529159 18.9622152,18.0040219 L18.9622152,18.0040219 L18.9622152,6.03813316 C18.9622152,5.48923918 18.5131201,5.04014411 17.9642261,5.04014411 L17.9642261,5.04014411 Z M17.3453731,10.8681008 C17.9741062,10.8681008 18.4830806,11.3870551 18.4830806,12.0257681 C18.4830806,12.6644811 17.9741062,13.1734555 17.3453731,13.1734555 C16.71664,13.1734555 16.2076656,12.6644811 16.2076656,12.0257681 C16.2076656,11.3870551 16.71664,10.8681008 17.3453731,10.8681008 Z M14.3814454,0.997989052 C14.3714656,0.997989052 14.3515058,0.997989052 14.331546,1.00796894 L14.331546,1.00796894 L1.74690404,3.93207687 C1.64710514,3.96201654 1.53732634,4.03187577 1.44750733,4.13167468 C1.62714536,4.07209473 1.82674317,4.04215506 2.03632087,4.04215506 L2.03632087,4.04215506 L14.72,4.042 L14.7207617,4.04185566 L14.690822,1.65666183 C14.6808422,1.23750642 14.5012041,0.997989052 14.3814454,0.997989052 Z" id="Combined-Shape"></path>
                </g>
            </g>
        </g>
    </g>
</svg>