<?xml version="1.0" encoding="utf-8"?>
<!-- Generator: Adobe Illustrator 24.0.1, SVG Export Plug-In . SVG Version: 6.00 Build 0)  -->
<svg version="1.1" id="Layer_1" xmlns="http://www.w3.org/2000/svg" xmlns:xlink="http://www.w3.org/1999/xlink" x="0px" y="0px"
	 viewBox="0 0 20 20" style="enable-background:new 0 0 20 20;" xml:space="preserve">
<style type="text/css">
	.st0{fill-rule:evenodd;clip-rule:evenodd;fill:#1FB7FF;}
</style>
<title>DF6D8E17-6C68-431B-8FF7-D73360759A7C</title>
<g id="Symbols">
	<g id="Components-_x2F_-desktop-_x2F_-sidebar-_x2F_-menu-provider" transform="translate(-25.000000, -226.000000)">
		<g id="Group" transform="translate(23.000000, 26.000000)">
			<g id="Icons-_x2F_-dashboard-Copy-5" transform="translate(2.000000, 200.000000)">
				<path id="Combined-Shape" class="st0" d="M14.4,0c0.7,0,1.3,0.7,1.3,1.6l0,0l0,2.4l0,0L18,4c1,0,1.9,0.8,2,1.8L20,6v12
					c0,1.1-0.9,2-2,2l0,0H2c-1.1,0-2-0.9-2-2l0,0L0,7.9l0-2.6c0-1,0.6-2,1.4-2.3l0.1,0L14.1,0C14.2,0,14.3,0,14.4,0z M18,5H2
					C1.5,5,1,5.5,1,6l0,0v12c0,0.5,0.4,1,1,1l0,0H18c0.5,0,1-0.4,1-1l0,0V6C19,5.5,18.5,5,18,5L18,5z M17.3,10.9
					c0.6,0,1.1,0.5,1.1,1.2s-0.5,1.1-1.1,1.1s-1.1-0.5-1.1-1.1S16.7,10.9,17.3,10.9z M14.4,1C14.4,1,14.4,1,14.4,1L14.4,1L1.7,3.9
					C1.6,4,1.5,4,1.4,4.1C1.6,4.1,1.8,4,2,4l0,0l12.7,0l0,0l0-2.4C14.7,1.2,14.5,1,14.4,1z"/>
			</g>
		</g>
	</g>
</g>
</svg>
