<?xml version="1.0" encoding="UTF-8"?>
<svg width="20px" height="20px" viewBox="0 0 20 20" version="1.1" xmlns="http://www.w3.org/2000/svg" xmlns:xlink="http://www.w3.org/1999/xlink">
    <title>D31CC1F8-BACD-439A-9A1E-394C60902F6B</title>
    <g id="Symbols" stroke="none" stroke-width="1" fill="none" fill-rule="evenodd">
        <g id="Components-/-desktop-/-sidebar-/-menu-provider" transform="translate(-25.000000, -177.000000)" fill="#6F6E7B" fill-rule="nonzero">
            <g id="Group" transform="translate(23.000000, 26.000000)">
                <g transform="translate(2.000000, 151.000000)" id="Icons-/-dashboard-Copy">
                    <path d="M9.07002131,3.35731443e-13 L9.15907752,0.0208893956 C9.63454712,0.127223158 10.5466725,0.276009563 11.167694,1.10403825 L11.167694,1.10403825 L11.2161234,1.10475313 C11.7174335,1.11897362 14.4214822,1.39358791 12.9341552,5.96180656 C12.9341552,5.96180656 13.8173858,7.50746011 12.4925399,8.16988306 L12.4925399,8.16988306 L12.4685238,8.26594733 C12.3980929,8.53085182 12.1682287,9.28772179 11.7197131,9.82594044 C11.7103324,9.84470187 11.7001546,9.86266625 11.6892475,9.8799013 C11.8392213,9.84384979 11.9982849,9.82594044 12.1613284,9.82594044 L12.1613284,9.82594044 L17.7919235,9.82594044 C19.0063656,9.82594044 20,10.8195749 20,12.0340169 L20,12.0340169 L20,17.664612 C20,18.8790541 19.0063656,19.8726885 17.7919235,19.8726885 L17.7919235,19.8726885 L12.1613284,19.8726885 C11.0216318,19.8726885 10.0763991,18.9976009 9.96436355,17.8861589 L1.01054208,17.8854197 L1.01054208,17.8854197 L0.889006227,17.8790855 C0.295073539,17.8164173 -0.0865959342,17.2988993 0.0169076519,16.7813814 C0.458522952,15.3461317 1.89377268,14.7941126 1.89377268,14.7941126 L1.89377268,14.7941126 L6.64113716,12.2548246 L6.64113716,10.3779596 C5.53709891,9.82594044 5.20588743,8.28028688 5.20588743,8.28028688 C3.88104153,7.50746011 4.76427213,6.07221038 4.76427213,6.07221038 C3.10821476,0.331211475 7.74517541,3.35731443e-13 8.84921366,3.35731443e-13 L9.07002131,3.35731443e-13 Z M17.7919235,10.9299787 L12.1613284,10.9299787 C11.4989055,10.9299787 11.0572902,11.371594 11.0572902,12.0340169 L11.0572902,12.0340169 L11.0572902,17.664612 C11.0572902,18.327035 11.4989055,18.7686503 12.1613284,18.7686503 L12.1613284,18.7686503 L17.7919235,18.7686503 C18.4543464,18.7686503 18.8959617,18.327035 18.8959617,17.664612 L18.8959617,17.664612 L18.8959617,12.0340169 C18.8959617,11.371594 18.4543464,10.9299787 17.7919235,10.9299787 L17.7919235,10.9299787 Z M8.95961749,1.10403825 L8.84921366,1.10403825 L8.76969844,1.10506841 C8.23572315,1.11810633 6.71086589,1.26673863 5.97871421,2.2080765 C5.42669508,2.98090328 5.42669508,4.19534535 5.86831038,5.74099891 L5.86831038,5.74099891 L5.97871421,6.18261421 L5.75790656,6.62422951 C5.64750273,6.84503716 5.64750273,7.06584481 5.64750273,7.17624863 C5.64750273,7.17624863 5.64750273,7.28665246 5.75790656,7.28665246 L5.75790656,7.28665246 L6.19952186,7.50746011 L6.30992568,8.05947923 C6.42032951,8.39069071 6.64113716,9.16351749 7.08275246,9.38432514 L7.08275246,9.38432514 L7.74517541,9.71553661 L7.74517541,12.9172475 L7.19315629,13.248459 L2.4457918,15.787747 L2.33538798,15.787747 C2.33538798,15.787747 1.5625612,16.1189585 1.23134973,16.7813814 L1.23134973,16.7813814 L9.953,16.781 L9.95325191,12.0340169 C9.95325191,11.7958548 9.99146554,11.5661847 10.0620641,11.3508351 L10.0636557,9.49472896 L10.7260787,9.16351749 C11.167694,8.94270984 11.3885016,8.16988306 11.4989055,7.83867158 L11.4989055,7.83867158 L11.6093093,7.28665246 L12.0509246,7.06584481 C12.0509246,7.06584481 12.0578248,7.05894457 12.0681752,7.04859421 L12.1613284,6.95544098 C12.1613284,6.84503716 12.1613284,6.51382568 12.0509246,6.40342186 L12.0509246,6.40342186 L11.8301169,6.07221038 L11.9405208,5.63059508 C12.4925399,3.64332623 12.1613284,2.87049945 11.9405208,2.53928798 C11.6093093,2.09767268 11.0572902,2.09767268 11.0572902,2.09767268 L10.505271,2.09767268 L10.1740596,1.65605738 C9.84284809,1.21444208 9.29082896,1.10403825 8.95961749,1.10403825 L8.95961749,1.10403825 Z M16.7982891,11.9236131 C17.1295005,11.9236131 17.3503082,12.1444208 17.3503082,12.4756322 C17.3503082,12.8068437 17.0190967,13.0276514 16.6878852,13.0276514 L13.2653667,13.0276514 C12.9341552,13.0276514 12.7133475,12.8068437 12.7133475,12.4756322 C12.7133475,12.1444208 12.9341552,11.9236131 13.2653667,11.9236131 L16.7982891,11.9236131 Z" id="Combined-Shape"></path>
                </g>
            </g>
        </g>
    </g>
</svg>