<?xml version="1.0" encoding="utf-8"?>
<!-- Generator: Adobe Illustrator 24.0.1, SVG Export Plug-In . SVG Version: 6.00 Build 0)  -->
<svg version="1.1" id="Layer_1" xmlns="http://www.w3.org/2000/svg" xmlns:xlink="http://www.w3.org/1999/xlink" x="0px" y="0px"
	 viewBox="0 0 20 20" style="enable-background:new 0 0 20 20;" xml:space="preserve">
<style type="text/css">
	.st0{fill:#E63F77;}
</style>
<title>D31CC1F8-BACD-439A-9A1E-394C60902F6B</title>
<g id="Symbols">
	<g id="Components-_x2F_-desktop-_x2F_-sidebar-_x2F_-menu-provider" transform="translate(-25.000000, -177.000000)">
		<g id="Group" transform="translate(23.000000, 26.000000)">
			<g id="Icons-_x2F_-dashboard-Copy" transform="translate(2.000000, 151.000000)">
				<path id="Combined-Shape" class="st0" d="M9.1,0L9.1,0c0.6,0.1,1.5,0.3,2.1,1.1l0,0l0,0c0.5,0,3.2,0.3,1.7,4.9
					c0,0,0.9,1.5-0.4,2.2l0,0l0,0.1c-0.1,0.3-0.3,1-0.7,1.6c0,0,0,0,0,0.1c0.1,0,0.3-0.1,0.5-0.1l0,0h5.6c1.2,0,2.2,1,2.2,2.2l0,0
					v5.6c0,1.2-1,2.2-2.2,2.2l0,0h-5.6c-1.1,0-2.1-0.9-2.2-2l-9,0l0,0l-0.1,0c-0.6-0.1-1-0.6-0.9-1.1c0.4-1.4,1.9-2,1.9-2l0,0
					l4.7-2.5v-1.9C5.5,9.8,5.2,8.3,5.2,8.3C3.9,7.5,4.8,6.1,4.8,6.1C3.1,0.3,7.7,0,8.8,0H9.1z M17.8,10.9h-5.6
					c-0.7,0-1.1,0.4-1.1,1.1l0,0v5.6c0,0.7,0.4,1.1,1.1,1.1l0,0h5.6c0.7,0,1.1-0.4,1.1-1.1l0,0V12C18.9,11.4,18.5,10.9,17.8,10.9
					L17.8,10.9z M9,1.1H8.8l-0.1,0C8.2,1.1,6.7,1.3,6,2.2C5.4,3,5.4,4.2,5.9,5.7l0,0L6,6.2L5.8,6.6C5.6,6.8,5.6,7.1,5.6,7.2
					c0,0,0,0.1,0.1,0.1l0,0l0.4,0.2l0.1,0.6c0.1,0.3,0.3,1.1,0.8,1.3l0,0l0.7,0.3v3.2l-0.6,0.3l-4.7,2.5H2.3c0,0-0.8,0.3-1.1,1l0,0
					l8.7,0l0-4.7c0-0.2,0-0.5,0.1-0.7l0-1.9l0.7-0.3c0.4-0.2,0.7-1,0.8-1.3l0,0l0.1-0.6l0.4-0.2c0,0,0,0,0,0L12.2,7
					c0-0.1,0-0.4-0.1-0.6l0,0l-0.2-0.3l0.1-0.4c0.6-2,0.2-2.8,0-3.1c-0.3-0.4-0.9-0.4-0.9-0.4h-0.6l-0.3-0.4C9.8,1.2,9.3,1.1,9,1.1
					L9,1.1z M16.8,11.9c0.3,0,0.6,0.2,0.6,0.6c0,0.3-0.3,0.6-0.7,0.6h-3.4c-0.3,0-0.6-0.2-0.6-0.6c0-0.3,0.2-0.6,0.6-0.6H16.8z"/>
			</g>
		</g>
	</g>
</g>
</svg>
