<?xml version="1.0" encoding="utf-8"?>
<!-- Generator: Adobe Illustrator 24.0.1, SVG Export Plug-In . SVG Version: 6.00 Build 0)  -->
<svg version="1.1" id="Layer_1" xmlns="http://www.w3.org/2000/svg" xmlns:xlink="http://www.w3.org/1999/xlink" x="0px" y="0px"
	 viewBox="0 0 20 20" style="enable-background:new 0 0 20 20;" xml:space="preserve">
<style type="text/css">
	.st0{fill-rule:evenodd;clip-rule:evenodd;fill:#E63F77;}
</style>
<title>02ECB91D-A7AF-4025-842D-9C4BB40214C9</title>
<g id="Symbols">
	<g id="Components-_x2F_-desktop-_x2F_-sidebar-_x2F_-menu-provider" transform="translate(-25.000000, -327.000000)">
		<g id="Group" transform="translate(23.000000, 26.000000)">
			<g id="Icons-_x2F_-dashboard-Copy-6" transform="translate(2.000000, 301.000000)">
				<g>
					<path id="Fill-1" class="st0" d="M10,12.6c-1.4,0-2.6-1.2-2.6-2.6c0-1.4,1.2-2.6,2.6-2.6s2.6,1.2,2.6,2.6
						C12.6,11.4,11.4,12.6,10,12.6 M11.2,0H8.8C8.6,0,8.4,0.2,8.4,0.4L7.9,3c-0.5,0.1-1,0.3-1.5,0.6L4.3,2C4.3,2,4.2,1.9,4.1,1.9
						C4,1.9,3.9,2,3.8,2.1L2.1,3.8c-0.2,0.1-0.2,0.4,0,0.6l1.5,2.1c-0.3,0.5-0.5,1-0.6,1.5L0.4,8.4C0.2,8.4,0,8.6,0,8.8v2.4
						c0,0.2,0.1,0.4,0.4,0.4l2.6,0.5c0.1,0.5,0.4,1,0.6,1.5L2,15.7c-0.1,0.2-0.1,0.4,0,0.6l1.7,1.7C3.8,18,4,18,4.1,18
						c0.1,0,0.2,0,0.3-0.1l2.2-1.5c0.5,0.3,0.9,0.4,1.5,0.6l0.4,2.6c0,0.2,0.2,0.4,0.4,0.4h2.4c0.2,0,0.4-0.1,0.4-0.4l0.5-2.6
						c0.5-0.2,1-0.4,1.4-0.6l2.2,1.5c0.1,0.1,0.2,0.1,0.2,0.1c0.1,0,0.2,0,0.3-0.1l1.7-1.7c0.1-0.1,0.2-0.4,0-0.6l-1.5-2.1
						c0.3-0.5,0.4-0.9,0.6-1.4l2.6-0.5c0.2,0,0.4-0.2,0.4-0.4V8.8c0-0.2-0.2-0.4-0.4-0.4L17,7.9c-0.1-0.5-0.4-1-0.6-1.4l1.5-2.2
						c0.1-0.2,0.1-0.4,0-0.6l-1.7-1.7C16.1,2,16,1.9,15.9,1.9c-0.1,0-0.2,0-0.3,0.1l-2.1,1.5c-0.5-0.2-0.9-0.4-1.4-0.6l-0.5-2.6
						C11.6,0.2,11.4,0,11.2,0 M10,13.6c2,0,3.6-1.6,3.6-3.6c0-2-1.6-3.6-3.6-3.6S6.4,8,6.4,10C6.4,12,8,13.6,10,13.6 M10.7,1
						l0.4,2.1l0.1,0.6l0.6,0.2c0.4,0.1,0.8,0.3,1.3,0.5l0.5,0.3l0.5-0.4l1.8-1.3l1,1l-1.2,1.8l-0.4,0.5L15.5,7
						c0.2,0.4,0.4,0.8,0.5,1.3l0.2,0.6l0.6,0.1L19,9.3v1.4l-2.1,0.4l-0.6,0.1l-0.2,0.6c-0.1,0.5-0.3,0.9-0.5,1.2l-0.3,0.6l0.4,0.5
						l1.3,1.7l-1,1l-1.8-1.3l-0.5-0.4L13,15.5c-0.4,0.2-0.8,0.4-1.3,0.5l-0.6,0.2l-0.1,0.6L10.7,19H9.3l-0.3-2.1l-0.1-0.6l-0.6-0.2
						c-0.5-0.1-0.9-0.3-1.3-0.5l-0.5-0.3l-0.5,0.4l-1.8,1.2l-1-1l1.2-1.7l0.4-0.5L4.4,13c-0.2-0.4-0.4-0.8-0.5-1.3l-0.2-0.6
						l-0.6-0.1L1,10.7V9.3l2.1-0.4l0.6-0.1l0.2-0.6C4,7.8,4.2,7.4,4.4,6.9l0.3-0.5L4.4,5.9L3.1,4.1l1-1l1.7,1.2l0.5,0.4L7,4.4
						c0.4-0.2,0.8-0.4,1.3-0.5l0.6-0.2l0.1-0.6L9.3,1H10.7"/>
				</g>
			</g>
		</g>
	</g>
</g>
</svg>
