<?xml version="1.0" encoding="UTF-8"?>
<svg width="20px" height="20px" viewBox="0 0 20 20" version="1.1" xmlns="http://www.w3.org/2000/svg" xmlns:xlink="http://www.w3.org/1999/xlink">
    <title>02ECB91D-A7AF-4025-842D-9C4BB40214C9</title>
    <defs>
        <filter id="filter-1">
            <feColorMatrix in="SourceGraphic" type="matrix" values="0 0 0 0 0.435294 0 0 0 0 0.431373 0 0 0 0 0.482353 0 0 0 1.000000 0"></feColorMatrix>
        </filter>
    </defs>
    <g id="Symbols" stroke="none" stroke-width="1" fill="none" fill-rule="evenodd">
        <g id="Components-/-desktop-/-sidebar-/-menu-provider" transform="translate(-25.000000, -327.000000)">
            <g id="Group" transform="translate(23.000000, 26.000000)">
                <g transform="translate(2.000000, 301.000000)" id="Icons-/-dashboard-Copy-6" filter="url(#filter-1)">
                    <g>
                        <path d="M10,12.6121228 C8.55462861,12.6121228 7.38767715,11.4461765 7.38767715,9.9998 C7.38767715,8.55442861 8.55462861,7.39752841 10,7.39752841 C11.4453714,7.39752841 12.6123228,8.55442861 12.6123228,9.9998 C12.6123228,11.4461765 11.4453714,12.6121228 10,12.6121228 M11.1749925,-0.0002 L8.78781787,-0.0002 C8.57272088,-0.0002 8.39481355,0.158609931 8.35762388,0.363655664 L7.93848628,2.95788624 C7.42486682,3.10664491 6.94039602,3.30163938 6.48306362,3.55392604 L4.34717057,2.02412405 C4.27379636,1.97085237 4.18534526,1.94471909 4.09689416,1.94471909 C3.98432003,1.94471909 3.87074078,1.98793951 3.78731531,2.07136498 L2.09970851,3.75897178 C1.94893959,3.90873557 1.93084732,4.14192484 2.05246758,4.31882704 L3.55412604,6.46477135 C3.30183938,6.93114988 3.09679365,7.41562069 2.94702985,7.92924014 L0.363855664,8.35842901 C0.158809931,8.39561868 0,8.57252088 0,8.78661274 L0,11.1747925 C0,11.3898895 0.148758669,11.5677968 0.363855664,11.6049865 L2.93898884,12.0613137 C3.08774751,12.5749332 3.29279325,13.059404 3.54507991,13.5257825 L2.02331893,15.6526294 C1.90270379,15.8204855 1.92180119,16.063726 2.07055986,16.2124847 L3.75917178,17.9010966 C3.84259725,17.9855272 3.952156,18.0277425 4.06473012,18.0277425 C4.1521761,18.0277425 4.24163232,18.0006041 4.31902704,17.9483375 L6.47401749,16.445674 C6.93034476,16.6969555 7.41582069,16.8939602 7.92843502,17.0427189 L8.35762388,19.6359443 C8.39481355,19.8510413 8.57272088,20.0008051 8.78781787,20.0008051 L11.1749925,20.0008051 C11.3900895,20.0008051 11.5679968,19.8510413 11.6051865,19.6359443 L12.071565,17.0427189 C12.5751332,16.883909 13.059604,16.6788632 13.5169364,16.4275817 L15.680973,17.9563786 C15.7563574,18.0086451 15.8417931,18.0337733 15.9262237,18.0337733 C16.0408081,18.0337733 16.1543874,17.9875375 16.2408282,17.9010966 L17.9294401,16.2124847 C18.0781988,16.063726 18.0972962,15.8204855 17.9766811,15.6526294 L16.4277817,13.5076902 C16.6800683,13.051363 16.8750628,12.5648819 17.0238215,12.0613137 L19.6361443,11.6049865 C19.8512413,11.5677968 20,11.3898895 20,11.1747925 L20,8.78661274 C20,8.57252088 19.8411901,8.39561868 19.6361443,8.35842901 L17.0238215,7.92924014 C16.8750628,7.42567195 16.6700171,6.94924215 16.4277817,6.49291489 L17.9475324,4.31882704 C18.0691527,4.15097097 18.0510604,3.90873557 17.9002915,3.75897178 L16.2126847,2.07136498 C16.1292592,1.98793951 16.01568,1.94471909 15.9031058,1.94471909 C15.8146547,1.94471909 15.7262036,1.97085237 15.6528294,2.02412405 L13.5068851,3.56297218 C13.0505578,3.32073678 12.5751332,3.11569104 12.0615137,2.96592725 L11.6051865,0.363655664 C11.5679968,0.158609931 11.3900895,-0.0002 11.1749925,-0.0002 M10,13.617249 C11.9941703,13.617249 13.617449,11.9949754 13.617449,9.9998 C13.617449,8.01065536 11.9941703,6.39240227 10,6.39240227 C8.00582973,6.39240227 6.38255101,8.01065536 6.38255101,9.9998 C6.38255101,11.9949754 8.00582973,13.617249 10,13.617249 M10.6965524,1.00492614 L11.0714645,3.13981407 L11.1800181,3.7559564 L11.7800784,3.93084835 C12.1921801,4.05045836 12.6032767,4.2213298 13.0364861,4.45150369 L13.5862901,4.7439954 L14.0928737,4.38013973 L15.8438034,3.12473718 L16.8519449,4.13086845 L15.6035782,5.91697761 L15.2517841,6.4205458 L15.5392502,6.96431905 C15.7684189,7.39652329 15.9392904,7.80560963 16.0599055,8.21469597 L16.2398231,8.81877678 L16.8609911,8.92129965 L18.9948739,9.27208867 L18.9948739,10.6963524 L16.8509398,11.0712645 L16.2378128,11.178813 L16.0599055,11.7758579 C15.9262237,12.2271595 15.7543472,12.6462971 15.5472912,13.0222143 L15.2397226,13.5800593 L15.6126244,14.095689 L16.8750628,15.8456136 L15.864911,16.8567705 L14.0968942,15.6063936 L13.5822696,15.242538 L13.0324656,15.5470912 C12.6394613,15.7631933 12.2142929,15.9431109 11.769022,16.0838285 L11.1900694,16.2667615 L11.0815157,16.8648116 L10.6985627,18.995679 L9.27027842,18.995679 L8.92149965,16.8788833 L8.81696653,16.2547 L8.20987034,16.0777978 C7.75253794,15.944116 7.34244648,15.7762599 6.95949342,15.5651835 L6.41169967,15.2646507 L5.89908534,15.6214705 L4.13207358,16.85275 L3.12292693,15.8436034 L4.36325259,14.1107659 L4.72710825,13.6001618 L4.42959091,13.0493527 C4.20042215,12.6251895 4.02854558,12.2110775 3.90390994,11.7808835 L3.72901799,11.1808232 L3.11388079,11.0722696 L1.00512614,10.6973575 L1.00512614,9.27108355 L3.11187054,8.92029452 L3.737059,8.81777166 L3.91295608,8.20967034 C4.03759172,7.78048148 4.20946829,7.36536438 4.43863705,6.94220627 L4.73313901,6.39642278 L4.37732435,5.88883407 L3.14805508,4.13086845 L4.1561966,3.12373205 L5.89808021,4.3710936 L6.41370992,4.73997489 L6.96753443,4.43441654 C7.35149261,4.22233493 7.76057895,4.05548399 8.2199216,3.92180221 L8.82902804,3.74490001 L8.93155091,3.1177013 L9.27228867,1.00492614 L10.6965524,1.00492614" id="Fill-1" fill="#0D0B22"></path>
                    </g>
                </g>
            </g>
        </g>
    </g>
</svg>