<?xml version="1.0" encoding="UTF-8"?>
<svg width="20px" height="20px" viewBox="0 0 20 20" version="1.1" xmlns="http://www.w3.org/2000/svg" xmlns:xlink="http://www.w3.org/1999/xlink">
    <title>959D0902-8E79-4B42-B984-A6B7DCA05AC6</title>
    <g id="Symbols" stroke="none" stroke-width="1" fill="none" fill-rule="evenodd">
        <g id="Components-/-desktop-/-sidebar-/-menu-provider" transform="translate(-25.000000, -278.000000)" fill="#6F6E7B">
            <g id="Group" transform="translate(23.000000, 26.000000)">
                <g transform="translate(2.000000, 252.000000)" id="Icons-/-dashboard-Copy-4">
                    <path d="M9.99949741,0 C15.5138966,0 20,4.48610343 20,10.0005026 C20,15.5159069 15.5138966,20.0010052 9.99949741,20.0010052 C4.48610343,20.0010052 4.24549285e-13,15.5159069 4.24549285e-13,10.0005026 C4.24549285e-13,4.48610343 4.48610343,0 9.99949741,0 Z M9.99949741,1.00517666 C5.03995577,1.00517666 1.00517666,5.04096095 1.00517666,10.0005026 C1.00517666,14.9610494 5.03995577,18.9958285 9.99949741,18.9958285 C14.9600442,18.9958285 18.9948233,14.9610494 18.9948233,10.0005026 C18.9948233,5.04096095 14.9600442,1.00517666 9.99949741,1.00517666 Z M9.86520581,13.4856511 C10.0873499,13.4856511 10.2562195,13.5489772 10.37282,13.6756295 C10.4874102,13.8032869 10.5457104,13.9600945 10.5457104,14.1480625 C10.5457104,14.3360306 10.4874102,14.4908278 10.37282,14.6134593 C10.2562195,14.737096 10.0873499,14.7974066 9.86520581,14.7974066 C9.64205659,14.7974066 9.47318691,14.737096 9.36060713,14.6134593 C9.24702216,14.4908278 9.18972709,14.3360306 9.18972709,14.1480625 C9.18972709,13.9600945 9.24702216,13.8032869 9.36060713,13.6756295 C9.47318691,13.5489772 9.64205659,13.4856511 9.86520581,13.4856511 Z M10.0380962,5.59300397 C10.8181133,5.59300397 11.42524,5.80208072 11.8604815,6.22023421 C12.2967281,6.6383877 12.5138463,7.21234357 12.5138463,7.94109665 C12.5138463,8.66281349 12.1801277,9.37347339 11.5116852,10.0730763 L10.8362065,10.7415188 C10.5356586,11.0752375 10.383877,11.5557119 10.383877,12.181937 L9.23998593,12.181937 C9.24802734,11.6914108 9.30230688,11.3034126 9.40584008,11.0199528 C9.5083681,10.7354878 9.71945519,10.4198623 10.0380962,10.0730763 L10.8482686,9.23877972 C11.1950545,8.84977635 11.3689501,8.42860733 11.3689501,7.97929336 C11.3689501,7.5470674 11.2553651,7.20932804 11.0281952,6.96406493 C10.8010253,6.71779665 10.4703222,6.59617028 10.0380962,6.59617028 C9.61692717,6.59617028 9.27818264,6.70774489 9.02286777,6.92988893 C8.76654772,7.15303815 8.63889028,7.45258079 8.63889028,7.82851686 L7.49399407,7.82851686 C7.50203548,7.15906921 7.74026235,6.62029452 8.20867467,6.21018244 C8.67608182,5.79806001 9.28622405,5.59300397 10.0380962,5.59300397 Z" id="Combined-Shape"></path>
                </g>
            </g>
        </g>
    </g>
</svg>