<?xml version="1.0" encoding="utf-8"?>
<!-- Generator: Adobe Illustrator 24.0.1, SVG Export Plug-In . SVG Version: 6.00 Build 0)  -->
<svg version="1.1" id="Layer_1" xmlns="http://www.w3.org/2000/svg" xmlns:xlink="http://www.w3.org/1999/xlink" x="0px" y="0px"
	 viewBox="0 0 20 20" style="enable-background:new 0 0 20 20;" xml:space="preserve">
<style type="text/css">
	.st0{fill-rule:evenodd;clip-rule:evenodd;fill:#E63F77;}
</style>
<title>959D0902-8E79-4B42-B984-A6B7DCA05AC6</title>
<g id="Symbols">
	<g id="Components-_x2F_-desktop-_x2F_-sidebar-_x2F_-menu-provider" transform="translate(-25.000000, -278.000000)">
		<g id="Group" transform="translate(23.000000, 26.000000)">
			<g id="Icons-_x2F_-dashboard-Copy-4" transform="translate(2.000000, 252.000000)">
				<path id="Combined-Shape" class="st0" d="M10,0c5.5,0,10,4.5,10,10c0,5.5-4.5,10-10,10C4.5,20,0,15.5,0,10C0,4.5,4.5,0,10,0z
					 M10,1c-5,0-9,4-9,9c0,5,4,9,9,9c5,0,9-4,9-9C19,5,15,1,10,1z M9.9,13.5c0.2,0,0.4,0.1,0.5,0.2c0.1,0.1,0.2,0.3,0.2,0.5
					s-0.1,0.3-0.2,0.5c-0.1,0.1-0.3,0.2-0.5,0.2c-0.2,0-0.4-0.1-0.5-0.2c-0.1-0.1-0.2-0.3-0.2-0.5s0.1-0.3,0.2-0.5
					C9.5,13.5,9.6,13.5,9.9,13.5z M10,5.6c0.8,0,1.4,0.2,1.8,0.6c0.4,0.4,0.7,1,0.7,1.7c0,0.7-0.3,1.4-1,2.1l-0.7,0.7
					c-0.3,0.3-0.5,0.8-0.5,1.4H9.2c0-0.5,0.1-0.9,0.2-1.2c0.1-0.3,0.3-0.6,0.6-0.9l0.8-0.8c0.3-0.4,0.5-0.8,0.5-1.3
					c0-0.4-0.1-0.8-0.3-1c-0.2-0.2-0.6-0.4-1-0.4c-0.4,0-0.8,0.1-1,0.3C8.8,7.2,8.6,7.5,8.6,7.8H7.5c0-0.7,0.2-1.2,0.7-1.6
					C8.7,5.8,9.3,5.6,10,5.6z"/>
			</g>
		</g>
	</g>
</g>
</svg>
